<?xml version="1.0" encoding="UTF-8" standalone="no"?>
<svg
   version="1.1"
   width="1000"
   height="294"
   viewBox="0 0 1000 294"
   id="svg586"
   sodipodi:docname="bluecco.svg"
   inkscape:version="1.2.1 (9c6d41e410, 2022-07-14, custom)"
   xmlns:inkscape="http://www.inkscape.org/namespaces/inkscape"
   xmlns:sodipodi="http://sodipodi.sourceforge.net/DTD/sodipodi-0.dtd"
   xmlns="http://www.w3.org/2000/svg"
   xmlns:svg="http://www.w3.org/2000/svg">
  <defs
     id="defs590" />
  <sodipodi:namedview
     id="namedview588"
     pagecolor="#ffffff"
     bordercolor="#000000"
     borderopacity="0.25"
     inkscape:showpageshadow="2"
     inkscape:pageopacity="0.0"
     inkscape:pagecheckerboard="0"
     inkscape:deskcolor="#d1d1d1"
     showgrid="false"
     inkscape:zoom="1.357"
     inkscape:cx="499.63154"
     inkscape:cy="147.01548"
     inkscape:window-width="1920"
     inkscape:window-height="1050"
     inkscape:window-x="0"
     inkscape:window-y="0"
     inkscape:window-maximized="1"
     inkscape:current-layer="g584" />
  <g
     transform="matrix(1,0,0,1,0.16994382022460286,0.02270486877822009)"
     id="g584">
    <path
       d="m 178.51505,187.54011 v 0 q 0,51.30594 -55.03207,51.30594 v 0 H 53.259761 V 60.851688 h 68.790089 q 27.22941,0 40.41418,11.00642 13.18477,11.06374 13.18477,35.140272 0,24.07653 -19.77715,36.68805 v 0 1.71975 q 22.6434,8.88539 22.6434,42.13393 z m -66.49709,19.49053 q 8.59876,0 11.63699,-3.89811 2.98091,-3.84078 2.98091,-16.05102 0,-12.15292 -3.15288,-17.19752 -3.15288,-4.98728 -11.46502,-4.98728 v 0 h -9.17201 v 42.13393 z m 0.28663,-69.9366 q 6.59238,0 9.17201,-4.01275 2.57963,-4.01276 2.57963,-14.21662 0,-10.14654 -2.69428,-14.33127 -2.75161,-4.1274 -9.34399,-4.1274 v 0 h -9.17201 v 36.68804 z m 176.27461,61.91109 -2.86625,39.84092 H 195.13932 V 60.851688 h 49.01295 V 199.00513 Z m 60.47795,-18.63065 q 0,8.88538 3.72613,13.18476 3.66881,4.29939 12.15292,4.29939 8.48411,0 11.75164,-4.18474 3.32486,-4.1274 3.32486,-13.58604 v 0 -119.236162 h 49.29956 V 182.95411 q 0,30.66891 -16.79625,44.71355 -16.73892,14.04465 -49.29956,14.04465 -32.56065,0 -48.43969,-13.92999 -15.87905,-13.87267 -15.87905,-44.25496 v 0 -122.675672 h 50.15944 z m 204.5932,18.34402 -2.86625,40.12755 H 454.47797 V 60.851688 h 99.17238 l -2.86625,43.853692 h -47.29319 v 26.65616 h 40.98743 v 37.83455 h -40.98743 v 29.52241 z m 60.76454,-47.17854 q 0,25.39501 5.0446,36.1148 4.98728,10.77712 16.4523,10.77712 11.46501,0 32.38867,-5.44589 v 0 l 7.45226,40.41418 q -22.64341,8.31214 -45.57344,8.31214 v 0 q -34.395,0 -49.98742,-22.81538 -15.64975,-22.75806 -15.64975,-67.93022 0,-45.11483 16.33765,-69.076712 16.33765,-23.90456 53.31228,-23.90456 v 0 q 21.78353,0 41.56068,9.17201 v 0 l -7.73889,44.426942 q -22.35678,-7.45226 -31.24217,-7.45226 v 0 q -12.61151,0 -17.48414,11.00641 -4.87263,11.06374 -4.87263,36.40142 z m 117.51641,0 q 0,25.39501 4.98728,36.1148 5.04461,10.77712 16.50962,10.77712 11.46502,0 32.38867,-5.44589 v 0 l 7.45226,40.41418 q -22.64341,8.31214 -45.57344,8.31214 v 0 q -34.39505,0 -50.04479,-22.81538 -15.59243,-22.75806 -15.59243,-67.93022 0,-45.11483 16.33765,-69.076712 16.33765,-23.90456 53.31233,-23.90456 v 0 q 21.78353,0 41.56068,9.17201 v 0 l -7.73889,44.426942 q -22.35678,-7.45226 -31.24216,-7.45226 v 0 q -12.61152,0 -17.48415,11.00641 -4.87263,11.06374 -4.87263,36.40142 z m 84.09588,-72.057622 q 16.4523,-21.4969 54.05755,-21.4969 37.54792,0 53.7136,21.21028 16.16567,21.210282 16.16567,68.904742 0,47.75179 -16.56695,70.68182 -16.62427,22.93003 -53.88557,22.93003 -37.2613,0 -53.59895,-22.64341 -16.39497,-22.6434 -16.39497,-70.39519 0,-47.69446 16.50962,-69.191372 z m 74.63725,68.790092 q 0,-26.36953 -4.1274,-35.71352 -4.12741,-9.28666 -16.9109,-9.28666 -12.78349,0 -16.4523,9.28666 -3.72613,9.34399 -3.72613,35.4269 v 0 6.87901 q 0,27.80266 4.12741,36.51607 4.1274,8.77074 16.9109,8.77074 12.78349,0 16.45229,-8.31214 3.72613,-8.31213 3.72613,-34.39504 v 0 z"
       opacity="1"
       fill="#ffffff"
       class="undefined-text-0"
       data-fill-palette-color="quaternary"
       id="text-0"
       style="stroke-width:5.73251" />
  </g>
</svg>
