<?xml version="1.0" encoding="UTF-8" standalone="no"?>
<svg
   version="1.1"
   width="1000"
   height="282"
   viewBox="0 0 1000 282"
   id="svg498"
   sodipodi:docname="cridux.svg"
   inkscape:version="1.2.1 (9c6d41e410, 2022-07-14, custom)"
   xmlns:inkscape="http://www.inkscape.org/namespaces/inkscape"
   xmlns:sodipodi="http://sodipodi.sourceforge.net/DTD/sodipodi-0.dtd"
   xmlns="http://www.w3.org/2000/svg"
   xmlns:svg="http://www.w3.org/2000/svg">
  <defs
     id="defs502" />
  <sodipodi:namedview
     id="namedview500"
     pagecolor="#ffffff"
     bordercolor="#000000"
     borderopacity="0.25"
     inkscape:showpageshadow="2"
     inkscape:pageopacity="0.0"
     inkscape:pagecheckerboard="0"
     inkscape:deskcolor="#d1d1d1"
     showgrid="false"
     inkscape:zoom="1.357"
     inkscape:cx="499.63154"
     inkscape:cy="141.12012"
     inkscape:window-width="1920"
     inkscape:window-height="1050"
     inkscape:window-x="0"
     inkscape:window-y="0"
     inkscape:window-maximized="1"
     inkscape:current-layer="svg498" />
  <g
     transform="matrix(1,0,0,1,-0.6060606060606233,0.24649976897552506)"
     id="g496">
    <svg
       viewBox="0 0 396 112"
       data-background-color="#ffffff"
       preserveAspectRatio="xMidYMid meet"
       height="282"
       width="1000"
       version="1.1"
       id="svg494">
      <defs
         id="defs466" />
      <g
         id="tight-bounds"
         transform="matrix(1,0,0,1,0.2400000000000091,-0.09790061746545575)">
        <svg
           viewBox="0 0 395.52 112.1958012349309"
           height="112.1958012349309"
           width="395.52"
           version="1.1"
           id="svg489">
          <g
             id="g487">
            <svg
               viewBox="0 0 395.52 112.1958012349309"
               height="112.1958012349309"
               width="395.52"
               version="1.1"
               id="svg485">
              <g
                 id="g483">
                <svg
                   viewBox="0 0 395.52 112.1958012349309"
                   height="112.1958012349309"
                   width="395.52"
                   version="1.1"
                   id="svg481">
                  <g
                     id="g479">
                    <svg
                       viewBox="0 0 395.52 112.1958012349309"
                       height="112.1958012349309"
                       width="395.52"
                       version="1.1"
                       id="svg477">
                      <g
                         id="g475">
                        <svg
                           viewBox="0 0 395.52 112.1958012349309"
                           height="112.1958012349309"
                           width="395.52"
                           version="1.1"
                           id="svg473">
                          <g
                             transform="matrix(1,0,0,1,0,0)"
                             id="g471">
                            <svg
                               width="395.52"
                               viewBox="-0.24000000953674316 -37.66800308227539 139.8300018310547 39.66800308227539"
                               height="112.1958012349309"
                               data-palette-color="#1c4b82"
                               version="1.1"
                               id="svg469">
                              <path
                                 d="M10.99-13.33L10.99-13.33Q11.08-13.09 11.72-12.28 12.35-11.47 13.16-10.52 13.96-9.57 14.75-8.69 15.53-7.81 15.82-7.42L15.82-7.42Q16.75-6.05 17.72-4.74 18.7-3.42 19.58-2L19.58-2Q19.82-1.76 19.97-1.39 20.12-1.03 20.12-0.63L20.12-0.63Q20.12-0.2 19.9-0.17 19.68-0.15 19.43-0.05L19.43-0.05Q18.95 0.29 18.55 0.34 18.16 0.39 17.92 0.39L17.92 0.39Q17.38 0.39 16.75 0.37 16.11 0.34 15.67 0.44L15.67 0.44Q15.53 0.49 15.33 0.61 15.14 0.73 15.04 0.73L15.04 0.73Q14.65 0.73 14.48 0.61 14.31 0.49 14.01 0.39L14.01 0.39Q13.62-0.05 13.31-0.54 12.99-1.03 12.65-1.51L12.65-1.51Q12.35-1.86 12.01-2.12 11.67-2.39 11.38-2.78L11.38-2.78Q10.6-3.91 9.79-4.93 8.98-5.96 8.15-6.98L8.15-6.98Q7.76-7.52 7.3-8.01 6.84-8.5 6.45-8.98L6.45-8.98Q6.05-9.52 5.71-10.11 5.37-10.69 4.98-11.23L4.98-11.23Q4.69-11.72 4.15-12.43 3.61-13.13 3.03-13.87 2.44-14.6 1.83-15.26 1.22-15.92 0.78-16.26L0.78-16.26Q0.78-16.6 0.59-16.75 0.39-16.89 0.15-17.09L0.15-17.09Q0.05-17.33-0.1-17.55-0.24-17.77-0.24-18.07L-0.24-18.07Q-0.24-18.26-0.2-18.41-0.15-18.55-0.1-18.7L-0.1-18.7Q0-18.9 0.02-19.07 0.05-19.24 0.15-19.43L0.15-19.43Q0.39-20.07 0.85-20.56 1.32-21.04 1.56-21.68L1.56-21.68Q1.61-21.88 1.61-22.05 1.61-22.22 1.71-22.41L1.71-22.41Q1.86-22.71 2.15-23 2.44-23.29 2.69-23.63L2.69-23.63Q2.93-24.07 3.17-24.51 3.42-24.95 3.66-25.39L3.66-25.39Q4.35-26.51 5.18-27.56 6.01-28.61 6.74-29.64L6.74-29.64Q7.42-30.62 8.01-31.57 8.59-32.52 9.28-33.5L9.28-33.5Q9.62-33.98 10.06-34.59 10.5-35.21 10.96-35.79 11.43-36.38 11.91-36.89 12.4-37.4 12.89-37.65L12.89-37.65Q13.72-37.74 13.96-37.38 14.21-37.01 14.65-37.01L14.65-37.01Q15.33-36.87 15.58-36.57 15.82-36.28 16.06-36.04L16.06-36.04Q16.7-36.04 17.14-35.79 17.58-35.55 18.02-35.06L18.02-35.06Q17.82-34.52 17.5-34.08 17.19-33.64 16.94-33.15L16.94-33.15Q16.55-33.01 16.38-32.67 16.21-32.32 15.87-32.08L15.87-32.08Q15.33-31.25 14.79-30.44 14.26-29.64 13.72-28.91L13.72-28.91Q13.48-28.61 13.16-28.44 12.84-28.27 12.65-27.93L12.65-27.93Q12.55-27.78 12.5-27.61 12.45-27.44 12.35-27.29L12.35-27.29Q11.77-26.37 11.04-25.49 10.3-24.61 9.77-23.63L9.77-23.63Q9.52-23.29 9.38-22.92 9.23-22.56 9.03-22.22L9.03-22.22Q8.84-21.92 8.47-21.39 8.11-20.85 7.74-20.29 7.37-19.73 7.1-19.21 6.84-18.7 6.84-18.36L6.84-18.36Q6.88-18.12 7.47-17.38 8.06-16.65 8.76-15.82 9.47-14.99 10.13-14.26 10.79-13.53 10.99-13.33ZM43.94-23.54L43.94-23.54Q43.5-22.61 42.75-21.78 41.99-20.95 41.31-20.21L41.31-20.21Q40.77-19.68 40.38-19.04 39.99-18.41 39.5-17.87L39.5-17.87Q39.11-17.43 38.72-17.07 38.33-16.7 37.99-16.26L37.99-16.26Q37.74-16.06 37.52-15.87 37.3-15.67 37.11-15.38L37.11-15.38Q37.84-13.82 38.84-12.55 39.84-11.28 40.92-10.01L40.92-10.01Q41.45-9.38 41.99-8.81 42.53-8.25 42.92-7.62L42.92-7.62Q43.26-6.88 43.63-6.52 43.99-6.15 44.28-5.76L44.28-5.76Q44.58-5.27 44.8-4.91 45.02-4.54 45.41-4.2L45.41-4.2Q45.41-3.96 45.7-3.74 45.99-3.52 46.09-3.27L46.09-3.27Q46.09-3.03 46.12-2.88 46.14-2.73 46.14-2.64L46.14-2.64Q45.99-2.25 45.63-1.98 45.26-1.71 44.97-1.42L44.97-1.42Q44.48-1.42 44.14-1.12 43.8-0.83 43.21-0.83L43.21-0.83Q42.97-0.63 42.82-0.42 42.67-0.2 42.43 0L42.43 0Q42.04 0 41.72 0.22 41.4 0.44 41.01 0.54L41.01 0.54Q40.52 0.24 40.23-0.22 39.94-0.68 39.45-0.93L39.45-0.93Q39.4-1.17 39.28-1.34 39.16-1.51 39.06-1.71L39.06-1.71Q38.23-2.64 37.5-3.66 36.77-4.69 36.03-5.71L36.03-5.71Q35.64-6.15 35.23-6.57 34.81-6.98 34.42-7.47L34.42-7.47Q34.18-7.76 33.93-8.15 33.69-8.54 33.4-8.89L33.4-8.89Q33.05-9.18 32.81-9.57 32.57-9.96 32.22-10.21L32.22-10.21Q31.78-9.96 31.44-9.57 31.1-9.18 30.66-8.89L30.66-8.89Q30.27-8.54 29.9-8.2 29.54-7.86 29.15-7.57L29.15-7.57Q29.05-6.45 29.05-5.4 29.05-4.35 29.05-3.32L29.05-3.32Q29.05-2.49 29.03-1.73 29-0.98 28.81-0.2L28.81-0.2Q28.56-0.15 28.34-0.46 28.12-0.78 27.88-0.83L27.88-0.83Q27.68-0.78 27.56-0.63 27.44-0.49 27.19-0.59L27.19-0.59Q26.95-0.34 26.46-0.15L26.46-0.15Q26.22-0.15 25.93-0.07 25.63 0 25.39 0L25.39 0Q25 0 24.85-0.1L24.85-0.1Q24.36 0.24 24.05 0.27 23.73 0.29 23.53 0.29L23.53 0.29Q23.43-0.05 23.34-0.37 23.24-0.68 23.19-1.07L23.19-1.07Q23.04-1.27 22.97-1.51 22.9-1.76 22.8-2L22.8-2Q22.85-2.15 22.85-2.34 22.85-2.54 22.85-2.73L22.85-2.73Q22.85-3.56 22.8-4.35 22.75-5.13 22.85-5.96L22.85-5.96Q22.75-6.2 22.7-6.45 22.65-6.69 22.65-6.93L22.65-6.93Q22.65-7.08 22.68-7.28 22.7-7.47 22.8-7.57L22.8-7.57Q22.65-8.2 22.63-8.91 22.6-9.62 22.6-10.25L22.6-10.25Q22.6-10.6 22.68-10.96 22.75-11.33 22.75-11.72L22.75-11.72Q22.75-12.55 22.65-13.33 22.56-14.11 22.56-14.89L22.56-14.89Q22.6-15.43 22.6-15.72L22.6-15.72Q22.6-16.02 22.65-16.31 22.7-16.6 22.6-16.89L22.6-16.89Q22.65-17.14 22.73-17.26 22.8-17.38 22.8-17.63L22.8-17.63Q22.8-18.26 22.82-18.87 22.85-19.48 22.85-20.17L22.85-20.17Q22.85-20.65 22.87-21.12 22.9-21.58 22.9-22.12L22.9-22.12Q22.9-22.56 22.97-22.95 23.04-23.34 23.09-23.73L23.09-23.73Q23.14-24.17 23.14-24.58 23.14-25 23.14-25.39L23.14-25.39Q23.14-26.42 23.14-27.47 23.14-28.52 23.04-29.54L23.04-29.54Q23-29.79 22.95-30.08 22.9-30.37 22.9-30.66L22.9-30.66Q22.8-31.59 22.75-32.57 22.7-33.54 22.56-34.52L22.56-34.52Q22.65-34.67 22.65-34.84 22.65-35.01 22.65-35.16L22.65-35.16Q22.65-35.4 22.65-35.62 22.65-35.84 22.6-36.08L22.6-36.08Q22.7-36.18 22.8-36.3 22.9-36.43 23-36.52L23-36.52Q23.29-36.52 23.61-36.5 23.92-36.47 24.17-36.28L24.17-36.28Q24.41-36.38 24.73-36.5 25.05-36.62 25.29-36.62L25.29-36.62Q25.68-36.62 25.88-36.43L25.88-36.43Q26.12-36.52 26.14-36.65 26.17-36.77 26.51-36.77L26.51-36.77Q27.15-36.82 27.41-36.82 27.68-36.82 27.93-36.87L27.93-36.87Q28.07-36.77 28.17-36.62 28.27-36.47 28.37-36.33L28.37-36.33Q29.44-35.94 30.1-35.23 30.76-34.52 31.59-34.03L31.59-34.03Q31.78-33.89 31.98-33.79 32.18-33.69 32.37-33.59L32.37-33.59Q32.81-33.3 33.25-32.96 33.69-32.62 34.18-32.37L34.18-32.37Q34.67-32.13 34.74-32.1 34.81-32.08 34.86-31.98L34.86-31.98Q35.94-31.59 36.79-30.93 37.64-30.27 38.62-29.74L38.62-29.74Q38.96-29.54 39.48-29.35 39.99-29.15 40.5-28.93 41.01-28.71 41.48-28.47 41.94-28.22 42.19-27.93L42.19-27.93Q42.72-27.39 43.14-27.17 43.55-26.95 43.94-26.66L43.94-26.66 43.99-25.34Q43.99-25 43.92-24.71 43.85-24.41 43.85-24.07L43.85-24.07Q43.85-23.83 43.94-23.54ZM37.25-24.8L37.25-24.8Q36.72-25.1 36.18-25.37 35.64-25.63 35.25-26.12L35.25-26.12Q34.91-26.22 34.03-26.59 33.15-26.95 32.25-27.37 31.35-27.78 30.59-28.1 29.83-28.42 29.73-28.42L29.73-28.42Q29.59-28.37 29.59-27.78 29.59-27.2 29.59-26.51 29.59-25.83 29.59-25.2 29.59-24.56 29.59-24.41L29.59-24.41Q29.59-23.49 29.54-22.61 29.49-21.73 29.39-20.8L29.39-20.8Q29.29-20.65 29.25-20.53 29.2-20.41 29.15-20.26L29.15-20.26Q29.05-19.58 29.05-18.46 29.05-17.33 29.05-16.65L29.05-16.65Q29.05-16.31 29.05-16.02 29.05-15.72 29.1-15.33L29.1-15.33Q29.34-15.33 29.44-15.45 29.54-15.58 29.78-15.67L29.78-15.67Q30.42-16.36 31.05-16.99 31.69-17.63 32.37-18.31L32.37-18.31Q32.66-18.6 32.96-18.95 33.25-19.29 33.59-19.53L33.59-19.53Q33.84-19.82 34.03-20.09 34.23-20.36 34.47-20.61L34.47-20.61Q35.15-21.34 35.89-22.05 36.62-22.75 37.11-23.63L37.11-23.63Q37.45-23.88 37.74-24.41L37.74-24.41Q37.4-24.46 37.25-24.8ZM63.76-5.62L63.76-5.62Q63.67-5.32 63.67-5.08L63.67-5.08Q63.67-4.79 63.74-4.49 63.81-4.2 63.81-3.91L63.81-3.91Q63.72-3.03 63.67-2.83L63.67-2.83Q63.37-2.59 62.47-2.27 61.57-1.95 60.32-1.64 59.08-1.32 57.64-1 56.2-0.68 54.88-0.39 53.56-0.1 52.46 0.12 51.36 0.34 50.83 0.44L50.83 0.44Q50.58 0.49 50.36 0.56 50.14 0.63 49.9 0.73L49.9 0.73Q49.65 0.78 49.41 0.76 49.16 0.73 48.92 0.83L48.92 0.83Q48.77 0.83 48.65 0.68 48.53 0.54 48.43 0.44L48.43 0.44Q48.43 0.15 48.33 0 48.24-0.15 48.12-0.24 47.99-0.34 47.9-0.46 47.8-0.59 47.8-0.88L47.8-0.88Q47.7-1.27 47.53-1.49 47.36-1.71 47.36-1.9L47.36-1.9Q47.16-2.54 47.16-3.03L47.16-3.03Q47.16-3.27 47.21-3.42 47.26-3.56 47.36-3.71L47.36-3.71Q47.65-3.81 47.8-3.96 47.94-4.1 48.19-4.2L48.19-4.2Q48.48-4.35 49.02-4.47 49.56-4.59 50.19-4.74 50.83-4.88 51.41-5.03 52-5.18 52.39-5.32L52.39-5.32Q52.53-5.37 52.68-5.37 52.83-5.37 52.92-5.47L52.92-5.47Q52.83-6.25 52.8-7.03 52.78-7.81 52.68-8.54L52.68-8.54Q52.68-8.89 52.63-9.23 52.58-9.57 52.58-9.86L52.58-9.86 52.63-10.89Q52.63-12.74 52.49-14.6 52.34-16.46 52.34-18.31L52.34-18.31 52.34-19.97Q52.34-20.36 52.31-20.7 52.29-21.04 52.29-21.44L52.29-21.44Q52.29-22.36 52.31-23.22 52.34-24.07 52.34-25L52.34-25 52.34-29.49Q51.26-29.74 50.34-29.47 49.41-29.2 48.43-29.1L48.43-29.1Q48.09-29.44 48.04-29.83L48.04-29.83Q47.65-30.37 47.5-30.52 47.36-30.66 47.16-31.35L47.16-31.35Q46.82-32.03 46.6-32.2 46.38-32.37 46.38-32.76L46.38-32.76Q46.38-33.01 46.5-33.11 46.63-33.2 46.72-33.45L46.72-33.45Q47.16-33.64 47.24-33.72 47.31-33.79 47.41-33.84L47.41-33.84Q47.9-34.18 48.53-34.33 49.16-34.47 49.75-34.67L49.75-34.67Q50.24-34.81 50.68-35.01 51.12-35.21 51.66-35.35L51.66-35.35Q52.29-35.55 52.92-35.74 53.56-35.94 54.15-36.08L54.15-36.08Q54.54-36.18 54.9-36.16 55.27-36.13 55.66-36.38L55.66-36.38Q56.29-36.28 57-36.4 57.71-36.52 58.54-36.72 59.37-36.91 60.15-37.06 60.93-37.21 61.32-37.3L61.32-37.3Q61.57-37.21 61.66-37.06 61.76-36.91 61.96-36.87L61.96-36.87Q62.01-36.72 62.06-36.5 62.1-36.28 62.25-36.18L62.25-36.18Q62.25-35.64 62.5-35.4L62.5-35.4Q62.45-34.91 62.67-34.3 62.89-33.69 62.89-33.15L62.89-33.15Q62.64-32.42 62.08-32.23 61.52-32.03 60.86-31.88 60.2-31.74 59.57-31.62 58.93-31.49 58.54-31.35L58.54-31.35Q58.54-30.66 58.56-29.93 58.59-29.2 58.59-28.47L58.59-28.47Q58.59-27.78 58.56-27.1 58.54-26.42 58.54-25.73L58.54-25.73Q58.54-24.71 58.52-23.63 58.49-22.56 58.49-21.48L58.49-21.48Q58.49-19.97 58.54-18.46 58.59-16.94 58.69-15.43L58.69-15.43Q58.74-15.19 58.74-14.7L58.74-14.7Q58.74-12.74 58.81-10.86 58.88-8.98 59.08-6.98L59.08-6.98Q59.71-6.93 60.05-7.18L60.05-7.18Q60.3-7.18 60.52-7.28 60.74-7.37 60.93-7.47L60.93-7.47Q61.23-7.52 61.74-7.64 62.25-7.76 62.4-7.76L62.4-7.76Q62.84-7.71 62.93-7.76L62.93-7.76Q63.08-7.47 63.37-7.32L63.37-7.32Q63.47-6.88 63.54-6.47 63.62-6.05 63.76-5.62ZM68.69 0.59L68.69 0.59Q68.5 0.39 68.5 0.05L68.5 0.05Q68.5-0.2 68.52-0.37 68.55-0.54 68.6-0.78L68.6-0.78Q68.84-1.9 68.84-3.05 68.84-4.2 68.94-5.32L68.94-5.32Q68.99-6.01 69.01-6.69 69.04-7.37 69.04-8.06L69.04-8.06Q69.04-12.11 68.79-16.14 68.55-20.17 68.55-24.27L68.55-24.27Q68.55-27.1 68.64-29.96 68.74-32.81 68.79-35.69L68.79-35.69Q69.23-35.94 69.87-35.89 70.5-35.84 70.89-36.33L70.89-36.33Q71.14-36.38 71.38-36.35 71.62-36.33 71.87-36.33L71.87-36.33Q72.4-36.33 72.89-36.67 73.38-37.01 73.97-37.26L73.97-37.26Q74.26-37.16 74.38-37.18 74.5-37.21 74.65-37.21L74.65-37.21Q74.8-37.21 75.29-36.87 75.77-36.52 76.36-36.08 76.95-35.64 77.46-35.25 77.97-34.86 78.12-34.77L78.12-34.77Q79.34-33.84 80.29-32.74 81.24-31.64 82.17-30.52L82.17-30.52Q83.05-29.39 84.07-28.25 85.1-27.1 86.08-26.12L86.08-26.12Q86.42-25.73 86.78-25.44 87.15-25.15 87.49-24.76L87.49-24.76Q87.64-24.56 87.76-24.34 87.88-24.12 88.03-23.88L88.03-23.88Q88.32-23.54 88.71-23.29 89.1-23.05 89.45-22.71L89.45-22.71Q89.69-22.51 90.18-21.92 90.67-21.34 90.67-21.04L90.67-21.04Q90.67-20.85 90.57-20.7 90.47-20.56 90.37-20.36L90.37-20.36Q90.32-20.21 90.32-19.92 90.32-19.63 90.28-19.53L90.28-19.53Q89.79-19.14 89.74-19.04 89.69-18.95 89.59-18.85L89.59-18.85Q89.45-18.65 89.23-18.53 89.01-18.41 88.91-18.16L88.91-18.16Q88.81-18.02 88.84-17.87 88.86-17.72 88.76-17.53L88.76-17.53Q88.52-16.99 87.98-16.5 87.44-16.02 87.05-15.43L87.05-15.43Q86.52-14.55 85.98-13.67 85.44-12.79 84.76-11.96L84.76-11.96Q84.47-11.57 84.15-11.21 83.83-10.84 83.54-10.45L83.54-10.45Q83.29-10.16 83.1-9.84 82.9-9.52 82.66-9.13L82.66-9.13Q82.12-8.45 81.63-7.79 81.14-7.13 80.61-6.45L80.61-6.45Q80.02-5.62 79.34-4.81 78.65-4 78.12-3.17L78.12-3.17Q77.58-2.29 76.99-1.56 76.41-0.83 75.72-0.15L75.72-0.15Q75.53 0 75.24 0.29 74.94 0.59 74.65 0.59L74.65 0.59Q74.46 0.59 74.33 0.44 74.21 0.29 73.97 0.29L73.97 0.29Q73.92 0.29 73.67 0.34 73.43 0.39 73.09 0.44L73.09 0.44 72.21 0.54Q71.43 0.93 71.09 0.9 70.74 0.88 70.4 0.93L70.4 0.93Q70.21 0.98 70.09 1.07 69.96 1.17 69.82 1.17L69.82 1.17Q69.47 1.17 69.28 0.85 69.08 0.54 68.69 0.59ZM83.34-20.51L83.34-20.51Q83.34-20.75 82.88-21.19 82.41-21.63 82.17-21.83L82.17-21.83Q81.83-22.12 81.36-22.39 80.9-22.66 80.61-23L80.61-23Q80.36-23.29 80.14-23.61 79.92-23.93 79.68-24.22L79.68-24.22Q78.8-25.2 77.9-26.17 76.99-27.15 76.31-28.32L76.31-28.32Q75.87-28.61 75.48-29 75.09-29.39 74.55-29.64L74.55-29.64Q74.46-29.35 74.48-29.03 74.5-28.71 74.5-28.42L74.5-28.42Q74.5-27.29 74.41-26.22 74.31-25.15 74.31-24.07L74.31-24.07Q74.31-21.44 74.43-18.87 74.55-16.31 74.55-13.72L74.55-13.72Q74.55-12.74 74.58-11.77 74.6-10.79 74.75-9.81L74.75-9.81Q74.65-9.52 74.65-9.28L74.65-9.28Q74.65-9.03 74.75-8.64L74.75-8.64Q75.14-8.89 75.41-9.25 75.68-9.62 75.92-9.96L75.92-9.96Q76.75-11.04 77.56-12.13 78.36-13.23 79.19-14.36L79.19-14.36Q79.73-15.09 80.29-15.8 80.85-16.5 81.39-17.29L81.39-17.29Q81.54-17.48 81.85-17.97 82.17-18.46 82.49-18.97 82.81-19.48 83.07-19.92 83.34-20.36 83.34-20.51ZM113.42-5.86L113.42-5.86Q112.93-5.81 112.83-5.91L112.83-5.91Q112.64-5.81 112.47-5.71 112.29-5.62 112.1-5.47L112.1-5.47Q111.42-5.22 110.76-4.83 110.1-4.44 109.41-4.1L109.41-4.1Q109.02-3.91 108.66-3.78 108.29-3.66 107.9-3.47L107.9-3.47Q107.31-3.17 106.73-2.86 106.14-2.54 105.51-2.29L105.51-2.29Q105.17-2.2 104.85-2.1 104.53-2 104.19-1.9L104.19-1.9Q103.8-1.76 103.48-1.59 103.16-1.42 102.82-1.27L102.82-1.27Q102.58-1.17 102.31-1.1 102.04-1.03 101.75-0.88L101.75-0.88Q101.5-0.78 101.33-0.63 101.16-0.49 100.92-0.39L100.92-0.39Q100.53-0.24 100.11-0.1 99.7 0.05 99.31 0.24L99.31 0.24Q98.92 0.44 98.74 0.61 98.57 0.78 98.09 0.93L98.09 0.93Q97.6 1.22 97.55 1.25 97.5 1.27 97.4 1.27L97.4 1.27Q97.26 1.37 97.13 1.44 97.01 1.51 96.87 1.61L96.87 1.61Q96.57 1.61 96.28 1.66 95.99 1.71 95.69 1.71L95.69 1.71Q95.35 1.51 95.23 1.32 95.11 1.12 95.11 0.78L95.11 0.78Q94.91 0.54 94.74 0.24 94.57-0.05 94.37-0.29L94.37-0.29Q94.03-0.1 93.96-0.32 93.89-0.54 93.84-0.81 93.79-1.07 93.74-1.34 93.69-1.61 93.64-1.71L93.64-1.71Q93.4-2.64 93.4-3.08L93.4-3.08Q93.4-3.32 93.5-3.39 93.59-3.47 93.59-3.61L93.59-3.61Q93.64-4.1 93.69-4.74 93.74-5.37 93.74-6.05 93.74-6.74 93.74-7.42 93.74-8.11 93.74-8.64L93.74-8.64Q93.74-10.84 93.69-12.92 93.64-14.99 93.64-17.09L93.64-17.09Q93.64-18.07 93.69-19.04 93.74-20.02 93.74-21L93.74-21Q93.74-23.39 93.81-25.73 93.89-28.08 93.89-30.47L93.89-30.47Q93.89-31.45 93.79-32.45 93.69-33.45 93.64-34.47L93.64-34.47Q93.59-35.01 93.69-35.33 93.79-35.64 93.74-35.99L93.74-35.99Q93.89-36.04 94.28-36.04 94.67-36.04 95.08-36.06 95.5-36.08 95.86-36.11 96.23-36.13 96.33-36.18L96.33-36.18Q96.67-35.94 97.01-35.94L97.01-35.94Q97.35-35.94 97.65-36.23L97.65-36.23Q97.89-36.13 97.91-36.08 97.94-36.04 98.18-36.04L98.18-36.04Q98.62-36.08 98.87-36.11 99.11-36.13 99.31-36.13L99.31-36.13Q99.84-35.74 99.97-35.18 100.09-34.62 100.14-34.01 100.19-33.4 100.21-32.79 100.23-32.18 100.23-31.79L100.23-31.79Q100.23-31.49 100.28-31.18 100.33-30.86 100.33-30.52L100.33-30.52Q100.33-30.27 100.31-30.03 100.28-29.79 100.28-29.54L100.28-29.54Q100.28-28.13 100.31-26.66 100.33-25.2 100.33-23.78L100.33-23.78Q100.33-21.24 100.26-18.68 100.19-16.11 100.19-13.57L100.19-13.57Q100.19-13.04 100.23-12.5 100.28-11.96 100.28-11.43L100.28-11.43Q100.28-11.13 100.26-10.84 100.23-10.55 100.23-10.25L100.23-10.25Q100.23-8.45 100.38-6.64L100.38-6.64Q100.58-6.69 101.21-6.91 101.85-7.13 102.53-7.4 103.21-7.67 103.8-7.93 104.38-8.2 104.53-8.35L104.53-8.35Q104.73-8.35 105.07-8.5 105.41-8.64 105.8-8.86 106.19-9.08 106.56-9.28 106.92-9.47 107.07-9.62L107.07-9.62Q107.02-10.6 107.02-11.6 107.02-12.6 107.02-13.57L107.02-13.57Q107.02-16.26 107.09-18.95 107.17-21.63 107.17-24.41L107.17-24.41Q107.17-26.12 107.12-27.83 107.07-29.54 107.07-31.25L107.07-31.25Q107.07-31.79 107.09-32.35 107.12-32.91 107.12-33.45L107.12-33.45Q107.12-34.28 107.09-35.08 107.07-35.89 107.17-36.72L107.17-36.72Q107.66-36.96 107.7-36.96L107.7-36.96Q108-36.96 108.12-36.96 108.24-36.96 108.34-36.87L108.34-36.87Q108.49-36.82 108.61-36.84 108.73-36.87 108.88-36.87L108.88-36.87Q109.12-36.87 109.37-36.77 109.61-36.67 109.85-36.67L109.85-36.67Q110.24-36.72 110.27-36.57 110.29-36.43 110.44-36.43L110.44-36.43Q110.83-36.57 110.98-36.43L110.98-36.43Q111.12-36.33 111.51-36.16 111.9-35.99 112.34-35.79 112.78-35.6 113.12-35.42 113.47-35.25 113.47-35.11L113.47-35.11Q113.61-34.33 113.56-33.45 113.52-32.57 113.52-31.79L113.52-31.79Q113.52-31.1 113.56-30.42 113.61-29.74 113.61-29.05L113.61-29.05Q113.61-28.66 113.61-28.27 113.61-27.88 113.66-27.54L113.66-27.54Q113.71-27.29 113.71-27.12 113.71-26.95 113.71-26.76L113.71-26.76Q113.71-26.51 113.81-26.12L113.81-26.12Q113.76-25.88 113.76-25.61 113.76-25.34 113.76-25.1L113.76-25.1Q113.76-24.41 113.81-23.68 113.86-22.95 113.86-22.22L113.86-22.22Q113.86-21.73 113.78-21.29 113.71-20.85 113.71-20.41L113.71-20.41 113.76-19.48Q113.76-18.99 113.81-18.51 113.86-18.02 113.86-17.48L113.86-17.48Q113.86-17.24 113.83-16.99 113.81-16.75 113.76-16.5L113.76-16.5Q113.71-16.26 113.71-15.97 113.71-15.67 113.71-15.43L113.71-15.43Q113.71-14.75 113.76-14.06 113.81-13.38 113.81-12.7L113.81-12.7Q113.81-12.26 113.78-11.84 113.76-11.43 113.76-10.99L113.76-10.99Q113.76-10.11 113.83-9.18 113.91-8.25 113.91-7.37L113.91-7.37Q113.91-6.98 113.81-6.54 113.71-6.1 113.42-5.86ZM128.94-23.83L128.94-23.83Q129.24-24.51 129.41-24.68 129.58-24.85 129.58-25.24L129.58-25.24Q130.07-26.22 130.43-27.27 130.8-28.32 131.29-29.35L131.29-29.35Q131.73-30.42 132.04-31.47 132.36-32.52 132.8-33.59L132.8-33.59Q132.85-33.79 133-34.18 133.14-34.57 133.29-35.01 133.43-35.45 133.58-35.82 133.73-36.18 133.83-36.33L133.83-36.33Q133.92-36.47 134-36.6 134.07-36.72 134.12-36.87L134.12-36.87Q134.41-36.87 134.51-36.84 134.61-36.82 134.75-36.82L134.75-36.82Q135.09-36.82 135.17-36.74 135.24-36.67 135.39-36.57L135.39-36.57Q135.93-36.52 136.24-36.43 136.56-36.33 136.8-36.08L136.8-36.08Q137.49-35.64 137.9-35.55 138.32-35.45 138.56-35.11L138.56-35.11Q139.59-35.01 139.59-34.03L139.59-34.03Q139.34-33.35 139.03-32.69 138.71-32.03 138.46-31.4L138.46-31.4Q138.02-29.98 137.49-28.69 136.95-27.39 136.32-26.12L136.32-26.12Q135.88-25.15 135.46-24.12 135.05-23.1 134.56-22.12L134.56-22.12Q134.31-21.29 134.07-20.75L134.07-20.75Q133.78-20.12 133.43-19.48 133.09-18.85 132.85-18.16L132.85-18.16Q132.6-17.92 132.46-17.6 132.31-17.29 132.12-16.99L132.12-16.99Q132.21-16.55 132.48-16.19 132.75-15.82 133-15.38L133-15.38Q133.04-15.04 133.19-14.72 133.34-14.4 133.48-14.06L133.48-14.06Q134.07-12.99 134.63-11.65 135.19-10.3 135.78-9.33L135.78-9.33Q136.41-8.35 136.73-7.57 137.05-6.79 137.54-5.81L137.54-5.81Q137.63-5.57 137.78-5.4 137.93-5.22 138.07-4.98L138.07-4.98 138.51-4.1Q138.71-3.66 138.98-3.25 139.25-2.83 139.49-2.39L139.49-2.39Q139.49-2.15 139.54-1.98 139.59-1.81 139.59-1.56L139.59-1.56Q139.25-0.98 139.12-0.98 139-0.98 138.85-0.88L138.85-0.88Q137.98-0.54 137.73 0.39L137.73 0.39Q137.49 0.49 137.24 0.54 137 0.59 137 0.93L137 0.93Q136.46 1.27 136.07 0.98L136.07 0.98Q135.83 1.22 135.63 1.54 135.44 1.86 135.09 2L135.09 2Q134.7 1.76 134.53 1.42 134.36 1.07 134.07 0.78L134.07 0.78Q134.02 0.44 133.87 0.2 133.73-0.05 133.68-0.34L133.68-0.34Q133.58-0.49 133.41-0.88 133.24-1.27 133.04-1.66 132.85-2.05 132.65-2.37 132.46-2.69 132.36-2.78L132.36-2.78Q131.97-3.56 131.7-4.35 131.43-5.13 131.04-5.96L131.04-5.96Q130.46-7.28 129.85-8.57 129.24-9.86 128.7-11.13L128.7-11.13Q128.45-11.08 128.16-10.62 127.87-10.16 127.62-9.57 127.38-8.98 127.18-8.42 126.99-7.86 126.94-7.57L126.94-7.57Q126.7-7.23 126.6-6.91 126.5-6.59 126.26-6.35L126.26-6.35Q126.01-5.52 125.67-4.76 125.33-4 124.94-3.22L124.94-3.22Q124.94-3.08 124.89-2.95 124.84-2.83 124.84-2.69L124.84-2.69Q124.3-1.81 123.77-0.9 123.23 0 122.79 0.98L122.79 0.98Q122.64 1.12 122.45 1.27 122.25 1.42 122.01 1.42L122.01 1.42Q121.67 1.42 121.37 1.15 121.08 0.88 120.84 0.73L120.84 0.73Q119.96 0.39 119.69 0.02 119.42-0.34 118.74-0.29L118.74-0.29Q118.49-0.63 118.4-0.59 118.3-0.54 118.15-0.54L118.15-0.54Q117.76-0.68 117.66-0.9 117.57-1.12 117.47-1.27L117.47-1.27Q117.47-1.76 117.42-1.9L117.42-1.9Q117.47-2.1 117.54-2.25 117.61-2.39 117.66-2.59L117.66-2.59Q118.2-3.27 118.47-4 118.74-4.74 119.27-5.37L119.27-5.37Q119.42-5.81 119.67-6.2 119.91-6.59 120.01-7.08L120.01-7.08Q120.35-7.52 120.59-7.96 120.84-8.4 120.98-8.94L120.98-8.94Q121.08-9.03 121.13-9.18 121.18-9.33 121.28-9.42L121.28-9.42Q121.42-9.86 121.62-10.28 121.81-10.69 121.91-11.13L121.91-11.13Q122.01-11.18 122.3-11.74 122.59-12.3 122.91-12.96 123.23-13.62 123.5-14.23 123.77-14.84 123.86-15.04L123.86-15.04Q124.21-15.72 124.55-16.21 124.89-16.7 125.13-17.48L125.13-17.48Q124.99-17.77 124.91-18.07 124.84-18.36 124.6-18.6L124.6-18.6Q124.6-19.14 124.26-19.65 123.91-20.17 123.82-20.7L123.82-20.7Q123.43-21.34 123.21-22.09 122.99-22.85 122.74-23.54L122.74-23.54Q122.69-23.73 122.59-23.93 122.5-24.12 122.4-24.32L122.4-24.32Q121.96-25.15 121.57-25.9 121.18-26.66 120.74-27.44L120.74-27.44Q120.5-27.93 120.1-28.59 119.71-29.25 119.47-29.74L119.47-29.74Q119.08-30.66 118.74-31.57 118.4-32.47 118.01-33.4L118.01-33.4Q118.01-33.79 117.86-34.23 117.71-34.67 117.71-35.06L117.71-35.06Q118.01-35.35 118.18-35.45 118.35-35.55 118.44-35.69L118.44-35.69Q118.84-35.69 119.18-36.04L119.18-36.04Q119.67-36.08 120.15-36.21 120.64-36.33 121.08-36.62L121.08-36.62Q121.57-36.62 121.86-36.79 122.16-36.96 122.55-36.96L122.55-36.96Q122.94-36.87 123.03-36.77 123.13-36.67 123.28-36.57L123.28-36.57Q124.69-33.4 126.11-30.22 127.53-27.05 128.94-23.83Z"
                                 opacity="1"
                                 transform="matrix(1,0,0,1,0,0)"
                                 fill="#1c4b82"
                                 class="undefined-text-0"
                                 data-fill-palette-color="primary"
                                 id="text-0"
                                 style="fill:#1a1a1a" />
                            </svg>
                          </g>
                        </svg>
                      </g>
                    </svg>
                  </g>
                </svg>
              </g>
            </svg>
          </g>
        </svg>
        <rect
           width="395.52"
           height="112.1958012349309"
           fill="none"
           stroke="none"
           visibility="hidden"
           id="rect491" />
      </g>
    </svg>
  </g>
</svg>
