<?xml version="1.0" encoding="UTF-8" standalone="no"?>
<svg
   version="1.1"
   width="1000"
   height="181"
   viewBox="0 0 1000 181"
   id="svg416"
   sodipodi:docname="dawkilogo.svg"
   inkscape:version="1.2.1 (9c6d41e410, 2022-07-14, custom)"
   xmlns:inkscape="http://www.inkscape.org/namespaces/inkscape"
   xmlns:sodipodi="http://sodipodi.sourceforge.net/DTD/sodipodi-0.dtd"
   xmlns="http://www.w3.org/2000/svg"
   xmlns:svg="http://www.w3.org/2000/svg">
  <defs
     id="defs420" />
  <sodipodi:namedview
     id="namedview418"
     pagecolor="#191919"
     bordercolor="#000000"
     borderopacity="0.25"
     inkscape:showpageshadow="2"
     inkscape:pageopacity="0"
     inkscape:pagecheckerboard="0"
     inkscape:deskcolor="#d1d1d1"
     showgrid="false"
     inkscape:zoom="1.0138224"
     inkscape:cx="625.35607"
     inkscape:cy="14.302308"
     inkscape:window-width="1920"
     inkscape:window-height="1050"
     inkscape:window-x="0"
     inkscape:window-y="0"
     inkscape:window-maximized="1"
     inkscape:current-layer="svg412" />
  <g
     transform="matrix(1,0,0,1,-0.6060588739360355,0.25758041886751926)"
     id="g414">
    <svg
       viewBox="0 0 396 72"
       data-background-color="#ffffff"
       preserveAspectRatio="xMidYMid meet"
       height="181"
       width="1000"
       version="1.1"
       id="svg412">
      <defs
         id="defs357" />
      <g
         id="tight-bounds"
         transform="matrix(1,0,0,1,0.23999931407865915,-0.10244709822612208)">
        <svg
           viewBox="0 0 395.52 72.20491002727844"
           height="72.20491002727844"
           width="395.52"
           version="1.1"
           id="svg407">
          <g
             id="g405">
            <svg
               viewBox="0 0 663.693076550672 121.16175889479393"
               height="72.20491002727844"
               width="395.52"
               version="1.1"
               id="svg403">
              <g
                 transform="matrix(1,0,0,1,268.17307655067196,10.296825687861919)"
                 id="g374">
                <svg
                   viewBox="0 0 395.52 100.5681075190701"
                   height="100.5681075190701"
                   width="395.52"
                   version="1.1"
                   id="svg372">
                  <g
                     id="g370">
                    <svg
                       viewBox="0 0 395.52 100.5681075190701"
                       height="100.5681075190701"
                       width="395.52"
                       version="1.1"
                       id="svg368">
                      <g
                         id="g366">
                        <svg
                           viewBox="0 0 395.52 100.5681075190701"
                           height="100.5681075190701"
                           width="395.52"
                           version="1.1"
                           id="svg364">
                          <g
                             id="g362"
                             transform="matrix(1,0,0,1,0,0)">
                            <svg
                               width="395.52"
                               viewBox="4.699999809265137 -35 137.63999938964844 35"
                               height="100.5681075190701"
                               data-palette-color="#8f8d8d"
                               version="1.1"
                               id="svg360">
                              <path
                                 d="M16.7 0L5.8 0Q5.3 0 5-0.3 4.7-0.6 4.7-1.1L4.7-1.1 4.7-33.85Q4.7-34.4 5-34.7 5.3-35 5.8-35L5.8-35 16.45-35Q21.75-35 24.75-33.45 27.75-31.9 29.03-28.88 30.3-25.85 30.35-21.5L30.35-21.5Q30.4-19.25 30.4-17.53 30.4-15.8 30.35-13.55L30.35-13.55Q30.25-8.95 29-5.95 27.75-2.95 24.8-1.48 21.85 0 16.7 0L16.7 0ZM7.85-32L7.85-3 16.45-3Q20.45-3 22.78-4.08 25.1-5.15 26.13-7.53 27.15-9.9 27.2-13.8L27.2-13.8Q27.25-15.3 27.25-16.43 27.25-17.55 27.25-18.65 27.25-19.75 27.2-21.25L27.2-21.25Q27.1-26.75 24.65-29.38 22.2-32 16.2-32L16.2-32 7.85-32ZM37.05 0L36.05 0Q35.65 0 35.35-0.3 35.05-0.6 35.05-1L35.05-1Q35.05-1.25 35.15-1.55L35.15-1.55 47.8-34Q48-34.5 48.32-34.75 48.65-35 49.25-35L49.25-35 50.95-35Q51.55-35 51.87-34.75 52.2-34.5 52.4-34L52.4-34 65.05-1.55Q65.15-1.25 65.15-1L65.15-1Q65.15-0.6 64.85-0.3 64.55 0 64.15 0L64.15 0 63.15 0Q62.65 0 62.4-0.28 62.15-0.55 62.05-0.75L62.05-0.75 58.95-8.75 41.25-8.75 38.15-0.75Q38.1-0.55 37.82-0.28 37.55 0 37.05 0L37.05 0ZM50.1-31.45L42.45-11.75 57.75-11.75 50.1-31.45ZM77.84 0L77.09 0Q76.5 0 76.17-0.28 75.84-0.55 75.69-1.2L75.69-1.2 68.84-33.4Q68.8-33.6 68.77-33.77 68.75-33.95 68.75-34L68.75-34Q68.75-34.4 69.05-34.7 69.34-35 69.75-35L69.75-35 70.8-35Q71.75-35 71.89-34.25L71.89-34.25 77.75-5.75 83.94-26.1Q84.09-26.55 84.47-26.9 84.84-27.25 85.5-27.25L85.5-27.25 86.59-27.25Q87.3-27.25 87.64-26.9 88-26.55 88.14-26.1L88.14-26.1 94.34-5.75 100.19-34.25Q100.34-35 101.3-35L101.3-35 102.34-35Q102.75-35 103.05-34.7 103.34-34.4 103.34-34L103.34-34Q103.34-33.95 103.32-33.77 103.3-33.6 103.25-33.4L103.25-33.4 96.39-1.2Q96.25-0.55 95.92-0.28 95.59 0 95 0L95 0 94.25 0Q93.64 0 93.27-0.3 92.89-0.6 92.69-1.2L92.69-1.2 86.05-22.3 79.39-1.2Q79.19-0.6 78.82-0.3 78.44 0 77.84 0L77.84 0ZM112.44 0L111.54 0Q111.04 0 110.74-0.3 110.44-0.6 110.44-1.1L110.44-1.1 110.44-33.85Q110.44-34.4 110.74-34.7 111.04-35 111.54-35L111.54-35 112.44-35Q112.99-35 113.29-34.7 113.59-34.4 113.59-33.85L113.59-33.85 113.59-20.85 128.74-34.25Q128.94-34.4 129.39-34.7 129.84-35 130.64-35L130.64-35 131.44-35Q131.84-35 132.14-34.7 132.44-34.4 132.44-34L132.44-34Q132.44-33.6 132.19-33.35L132.19-33.35 115.24-18.25 133.24-1.7Q133.54-1.4 133.54-1L133.54-1Q133.54-0.6 133.24-0.3 132.94 0 132.54 0L132.54 0 131.69 0Q130.89 0 130.44-0.3 129.99-0.6 129.79-0.75L129.79-0.75 113.59-15.55 113.59-1.1Q113.59-0.6 113.29-0.3 112.99 0 112.44 0L112.44 0ZM141.24 0L140.29 0Q139.79 0 139.49-0.3 139.19-0.6 139.19-1.1L139.19-1.1 139.19-33.9Q139.19-34.4 139.49-34.7 139.79-35 140.29-35L140.29-35 141.24-35Q141.74-35 142.04-34.7 142.34-34.4 142.34-33.9L142.34-33.9 142.34-1.1Q142.34-0.6 142.04-0.3 141.74 0 141.24 0L141.24 0Z"
                                 opacity="1"
                                 fill="#8f8d8d"
                                 class="undefined-text-0"
                                 data-fill-palette-color="primary"
                                 id="text-0"
                                 transform="matrix(1,0,0,1,0,0)"
                                 style="fill:#ffffff" />
                            </svg>
                          </g>
                        </svg>
                      </g>
                    </svg>
                  </g>
                </svg>
              </g>
              <g
                 id="g401">
                <svg
                   viewBox="0 0 244.43135999999996 121.16175889479393"
                   height="121.16175889479393"
                   width="244.43135999999996"
                   version="1.1"
                   id="svg399">
                  <g
                     id="g397">
                    <svg
                       version="1.1"
                       x="0"
                       y="0"
                       viewBox="6.791092872619629 27.616064071655273 82.41578674316406 40.8525390625"
                       enable-background="new 0 0 96 96"
                       xml:space="preserve"
                       height="121.16175889479393"
                       width="244.43135999999996"
                       class="icon-icon-0"
                       data-fill-palette-color="accent"
                       id="icon-0"><g
                         fill="#2103aa"
                         data-fill-palette-color="accent"
                         id="g394"><g
                           fill="#2103aa"
                           data-fill-palette-color="accent"
                           id="g380"><g
                             fill="#2103aa"
                             data-fill-palette-color="accent"
                             id="g378"><path
                               d="M8.332 36.762c3.179-0.959 5.671-2.961 8.359-4.839 5.132-3.587 8.124-0.398 12.109 2.733 5.658 4.446 10.794 1.314 16.302-1.551 5.161-2.686 9.328 1.081 13.729 3.178 2.781 1.325 5.571 1.127 8.455 0.316 5.038-1.417 9.131-6.084 14.181-1.772 2.043 1.744 3.772 2.904 6.532 2.824 1.608-0.047 1.613-2.547 0-2.5-3.556 0.104-5.71-3.452-8.877-4.635-2.869-1.072-6.368 0.774-8.851 1.995-5.599 2.752-9.06 2.418-14.332-0.66-2.364-1.38-5.281-2.599-8.079-2.14-3.996 0.656-7.004 3.318-10.781 4.586-4.436 1.489-7.791-2.62-10.906-4.981-6.921-5.246-12.265 3.151-18.506 5.035C6.129 34.815 6.785 37.229 8.332 36.762L8.332 36.762z"
                               fill="#2103aa"
                               data-fill-palette-color="accent"
                               id="path376"
                               style="fill:#ffffff" /></g></g><g
                           fill="#2103aa"
                           data-fill-palette-color="accent"
                           id="g386"><g
                             fill="#2103aa"
                             data-fill-palette-color="accent"
                             id="g384"><path
                               d="M8 52.849c2.222-0.262 3.773-0.806 5.497-2.262 5.403-4.566 9.429-4.688 15.174-0.61 6.463 4.586 12.531 2.732 18.514-1.337 4.417-3.005 7.283 1.237 11.232 2.444 3.207 0.979 6.036 0.345 9.098-0.892 4.861-1.963 7.438-2.722 12.021 0.092 2.521 1.548 4.807 2.733 7.831 2.564 1.603-0.09 1.611-2.59 0-2.5-6.121 0.343-9.611-5.941-16.163-4.388-5.149 1.221-8.463 4.87-13.953 1.735-2.346-1.339-5.279-3.474-8.196-2.618-2.683 0.786-4.749 2.628-7.13 4.022-6.008 3.519-10.93-1.133-15.966-3.766-2.396-1.253-4.979-1.314-7.559-0.804-4.187 0.829-6.181 5.32-10.4 5.817C6.419 50.535 6.4 53.037 8 52.849L8 52.849z"
                               fill="#2103aa"
                               data-fill-palette-color="accent"
                               id="path382"
                               style="fill:#ffffff" /></g></g><g
                           fill="#2103aa"
                           data-fill-palette-color="accent"
                           id="g392"><g
                             fill="#2103aa"
                             data-fill-palette-color="accent"
                             id="g390"><path
                               d="M8.633 67.202c2.175-0.095 3.614-0.661 5.357-2.008 6.485-5.011 10.204-0.702 16.362 1.333 7.442 2.46 12.421-2.954 19.547-3.153 3.539-0.099 6.968 3.489 10.592 4.079 2.512 0.41 5.274-0.399 7.535-1.427 2.255-1.024 4.421-2.327 6.736-3.209 2.01-0.766 4.684 2.745 6.04 3.795 2.041 1.58 4.721 1.787 7.197 1.856 1.613 0.045 1.608-2.455 0-2.5-4.485-0.126-6.113-2.355-9.348-4.727-1.998-1.465-3.723-1.152-5.972-0.295-3.619 1.378-6.522 3.688-10.524 4.087-4.317 0.432-7.061-3.508-11.078-4.012-2.686-0.337-4.923 0.368-7.42 1.341-5.665 2.206-9.629 3.444-15.397 0.399-3.248-1.715-6.071-2.942-9.802-2.486-3.779 0.462-6.068 4.263-9.826 4.426C7.027 64.771 7.021 67.272 8.633 67.202L8.633 67.202z"
                               fill="#2103aa"
                               data-fill-palette-color="accent"
                               id="path388"
                               style="fill:#ffffff" /></g></g></g></svg>
                  </g>
                </svg>
              </g>
            </svg>
          </g>
        </svg>
        <rect
           width="395.52"
           height="72.20491002727844"
           fill="none"
           stroke="none"
           visibility="hidden"
           id="rect409" />
      </g>
    </svg>
  </g>
</svg>
