<?xml version="1.0" encoding="UTF-8" standalone="no"?>
<svg
   version="1.1"
   width="1000"
   height="133"
   viewBox="0 0 1000 133"
   id="svg850"
   sodipodi:docname="fincal.svg"
   inkscape:version="1.2.1 (9c6d41e410, 2022-07-14, custom)"
   xmlns:inkscape="http://www.inkscape.org/namespaces/inkscape"
   xmlns:sodipodi="http://sodipodi.sourceforge.net/DTD/sodipodi-0.dtd"
   xmlns="http://www.w3.org/2000/svg"
   xmlns:svg="http://www.w3.org/2000/svg">
  <defs
     id="defs854" />
  <sodipodi:namedview
     id="namedview852"
     pagecolor="#ffffff"
     bordercolor="#000000"
     borderopacity="0.25"
     inkscape:showpageshadow="2"
     inkscape:pageopacity="0.0"
     inkscape:pagecheckerboard="0"
     inkscape:deskcolor="#d1d1d1"
     showgrid="false"
     inkscape:zoom="1.357"
     inkscape:cx="499.63154"
     inkscape:cy="67.42815"
     inkscape:window-width="1920"
     inkscape:window-height="1050"
     inkscape:window-x="0"
     inkscape:window-y="0"
     inkscape:window-maximized="1"
     inkscape:current-layer="svg850" />
  <g
     transform="matrix(1,0,0,0.95634318,-44.606061,2.6446359)"
     id="g848">
    <svg
       viewBox="0 0 396 53"
       data-background-color="#ffffff"
       preserveAspectRatio="xMidYMid"
       height="133"
       width="1000"
       version="1.1"
       id="svg846">
      <defs
         id="defs807" />
      <g
         id="tight-bounds"
         transform="translate(0.24,-0.12957797)">
        <svg
           viewBox="0 0 395.52 53.259156"
           height="53.259155"
           width="395.51999"
           version="1.1"
           id="svg841">
          <g
             id="g839">
            <svg
               viewBox="0 0 451.11793 60.745753"
               height="53.259155"
               width="395.51999"
               version="1.1"
               id="svg837">
              <g
                 transform="translate(55.597928,1.0695707)"
                 id="g824">
                <svg
                   viewBox="0 0 395.52 58.606611"
                   height="58.606613"
                   width="395.51999"
                   version="1.1"
                   id="svg822">
                  <g
                     id="g820">
                    <svg
                       viewBox="0 0 395.52 58.606611"
                       height="58.606613"
                       width="395.51999"
                       version="1.1"
                       id="svg818">
                      <g
                         id="g816">
                        <svg
                           viewBox="0 0 395.52 58.606611"
                           height="58.606613"
                           width="395.51999"
                           version="1.1"
                           id="svg814">
                          <g
                             id="g812">
                            <svg
                               width="395.51999"
                               viewBox="4 -29.450001 198.74001 29.450001"
                               height="58.606613"
                               data-palette-color="#6705ff"
                               version="1.1"
                               id="svg810">
                              <path
                                 d="M 11.1,0 H 4.5 v -25.4 l -0.5,-4 h 31.2 v 4.8 H 11.1 v 7.3 h 18.7 v 4.95 H 11.1 Z m 35.7,0 h -6.6 v -29.4 h 6.6 z m 15.1,0 h -6.6 v -25.4 l -0.5,-4 H 62 l 17,17.8 1.95,2.7 h 0.55 v -20.5 h 6.6 V 0 h -6.35 l -17.4,-18.1 -1.95,-2.35 h -0.5 z m 56.74,0 h -13.9 q -3.55,0 -5.55,-1 -2,-1 -2.8,-3 -0.8,-2 -0.8,-4.95 v 0 -11.15 q 0,-4.8 2.15,-7.08 2.15,-2.27 7,-2.27 v 0 h 15.05 q 3.45,0 5.28,0.37 1.82,0.38 1.82,0.78 v 0 l -1,4.15 q -0.85,-0.15 -5.02,-0.33 -4.18,-0.17 -12.13,-0.17 v 0 h -2.55 q -4,0 -4,3.55 v 0 12.75 q 0,1.7 0.88,2.62 0.87,0.93 3.12,0.93 v 0 h 2.05 q 8.3,0 12.88,-0.18 4.57,-0.17 5.67,-0.37 v 0 l 2.05,3.3 q 0,0.25 -0.82,0.75 -0.83,0.5 -3.03,0.9 -2.2,0.4 -6.35,0.4 z m 18.5,0 h -7.3 l 14.65,-29.4 h 9.85 L 168.94,0 h -7.7 l -2.95,-6.35 h -17.9 z m 11.95,-24.9 -6.9,13.65 h 14.25 L 149.59,-24.9 Z M 196.74,0 h -23.8 l 0.5,-4 v -25.4 h 6.6 v 24.6 h 20.7 l 2,4.25 q 0,0.2 -1.35,0.37 Q 200.04,0 196.74,0 Z"
                                 opacity="1"
                                 fill="#6705ff"
                                 class="undefined-text-0"
                                 data-fill-palette-color="primary"
                                 id="text-0"
                                 style="fill:#ffffff" />
                            </svg>
                          </g>
                        </svg>
                      </g>
                    </svg>
                  </g>
                </svg>
              </g>
              <g
                 id="g835">
                <svg
                   viewBox="0 0 41.762314 60.745753"
                   height="60.745754"
                   width="41.762314"
                   version="1.1"
                   id="svg833">
                  <g
                     id="g831">
                    <svg
                       version="1.1"
                       x="0"
                       y="0"
                       viewBox="23.530998 11.5 52.937004 77"
                       enable-background="new 0 0 100 100"
                       xml:space="preserve"
                       height="60.745754"
                       width="41.762314"
                       class="icon-icon-0"
                       data-fill-palette-color="accent"
                       id="icon-0"><g
                         fill="#5a00ff"
                         data-fill-palette-color="accent"
                         id="g828" /></svg>
                  </g>
                </svg>
              </g>
            </svg>
          </g>
        </svg>
        <rect
           width="395.51999"
           height="53.259155"
           fill="none"
           stroke="none"
           visibility="hidden"
           id="rect843"
           x="0"
           y="0" />
      </g>
    </svg>
  </g>
</svg>
