<?xml version="1.0" encoding="UTF-8" standalone="no"?>
<svg
   version="1.1"
   width="741"
   height="361"
   viewBox="0 0 741 361"
   id="svg812"
   sodipodi:docname="finixlogo.svg"
   inkscape:version="1.2.1 (9c6d41e410, 2022-07-14, custom)"
   xmlns:inkscape="http://www.inkscape.org/namespaces/inkscape"
   xmlns:sodipodi="http://sodipodi.sourceforge.net/DTD/sodipodi-0.dtd"
   xmlns="http://www.w3.org/2000/svg"
   xmlns:svg="http://www.w3.org/2000/svg">
  <defs
     id="defs816" />
  <sodipodi:namedview
     id="namedview814"
     pagecolor="#ffffff"
     bordercolor="#000000"
     borderopacity="0.25"
     inkscape:showpageshadow="2"
     inkscape:pageopacity="0.0"
     inkscape:pagecheckerboard="0"
     inkscape:deskcolor="#d1d1d1"
     showgrid="false"
     inkscape:zoom="1.357"
     inkscape:cx="540.16212"
     inkscape:cy="152.17391"
     inkscape:window-width="1920"
     inkscape:window-height="1050"
     inkscape:window-x="0"
     inkscape:window-y="0"
     inkscape:window-maximized="1"
     inkscape:current-layer="svg803" />
  <g
     transform="translate(-0.60606007,-0.22620353)"
     id="g810">
    <svg
       viewBox="0 0 396 143"
       data-background-color="#ffffff"
       preserveAspectRatio="xMidYMid"
       height="361"
       width="1000"
       version="1.1"
       id="svg808">
      <defs
         id="defs756" />
      <g
         id="tight-bounds"
         transform="translate(0.24000021,0.08960417)">
        <svg
           viewBox="0 0 395.52 142.82079"
           height="142.82079"
           width="395.51999"
           version="1.1"
           id="svg803">
          <path
             d="M 16.63783,97.485477 H 4.5376205 V 8.3260178 H 58.924895 V 19.279896 H 16.63783 V 45.390885 H 49.24472 V 56.344756 H 16.63783 Z m 66.614865,0 H 71.152481 V 8.3260178 h 12.100214 z m 32.479525,0 H 103.632 V 8.3260178 h 13.11918 L 160.69407,75.068239 V 8.3260178 h 12.20211 V 97.485477 h -10.29155 l -46.87241,-70.43597 z m 89.64348,0 H 193.27549 V 8.3260178 h 12.10021 z m 24.70991,0 H 216.07484 L 246.38906,52.523638 216.58432,8.3260178 H 230.5951 L 253.39445,42.079247 276.06643,8.3260178 h 14.01078 L 260.39984,52.523638 290.58669,97.485477 H 276.57591 L 253.39445,62.968023 Z"
             fill="#858585"
             data-fill-palette-color="primary"
             id="path758"
             style="fill:#ffffff;stroke-width:2.54741" />
          <path
             d="m 6.1878005,134.59445 v 0 q -0.53872,0 -0.88681,-0.35638 -0.35638,-0.34809 -0.35638,-0.8868 v 0 -29.8779 q 0,-0.53871 0.35638,-0.89509 0.34809,-0.34809 0.88681,-0.34809 v 0 H 26.12021 q 0.49727,0 0.87022,0.34809 0.37296,0.35638 0.37296,0.89509 v 0 q 0,0.49728 -0.37296,0.87023 -0.37295,0.37296 -0.87022,0.37296 v 0 H 7.4309805 v 12.43185 H 21.14746 q 0.53872,0 0.8951,0.34809 0.34809,0.35638 0.34809,0.8951 v 0 q 0,0.53871 -0.34809,0.91167 -0.35638,0.37295 -0.8951,0.37295 v 0 H 7.4309805 v 13.67505 q 0,0.53871 -0.34809,0.8868 -0.35638,0.35638 -0.89509,0.35638 z m 28.8418995,0 v 0 q -0.53871,0 -0.89509,-0.35638 -0.34809,-0.34809 -0.34809,-0.8868 v 0 -20.18105 q 0,-0.58015 0.34809,-0.91167 0.35638,-0.33152 0.89509,-0.33152 v 0 q 0.58015,0 0.91167,0.33152 0.33152,0.33152 0.33152,0.91167 v 0 20.18105 q 0,0.53871 -0.33152,0.8868 -0.33152,0.35638 -0.91167,0.35638 z m -0.0414,-27.43296 v 0 q -0.78735,0 -1.35093,-0.55529 -0.55529,-0.56358 -0.55529,-1.39237 v 0 q 0,-0.95311 0.59673,-1.43381 0.60502,-0.47241 1.35093,-0.47241 v 0 q 0.70447,0 1.3012,0.47241 0.60502,0.4807 0.60502,1.43381 v 0 q 0,0.82879 -0.56358,1.39237 -0.55529,0.55529 -1.38408,0.55529 z m 29.173425,27.43296 v 0 q -0.538714,0 -0.895094,-0.35638 -0.348092,-0.34809 -0.348092,-0.8868 v 0 -11.14724 q 0,-2.735 -1.060852,-4.5169 -1.060851,-1.7819 -2.859327,-2.677 -1.798476,-0.8868 -4.07765,-0.8868 v 0 q -2.23773,0 -4.01963,0.84536 -1.7819,0.85366 -2.81789,2.34548 -1.03599,1.49182 -1.03599,3.3566 v 0 h -2.07197 q 0.16575,-2.56925 1.53326,-4.62465 1.3675,-2.04711 3.5638,-3.23228 2.19629,-1.17688 4.84842,-1.17688 v 0 q 2.975358,0 5.362276,1.21832 2.378628,1.22661 3.75442,3.5638 1.367504,2.34547 1.367504,5.78495 v 0 11.14724 q 0,0.53871 -0.35638,0.8868 -0.348092,0.35638 -0.886805,0.35638 z m -18.357705,0 v 0 q -0.53872,0 -0.8951,-0.35638 -0.34809,-0.34809 -0.34809,-0.8868 v 0 -20.18105 q 0,-0.58015 0.34809,-0.91167 0.35638,-0.33152 0.8951,-0.33152 v 0 q 0.58015,0 0.91167,0.33152 0.33151,0.33152 0.33151,0.91167 v 0 20.18105 q 0,0.53871 -0.33151,0.8868 -0.33152,0.35638 -0.91167,0.35638 z m 36.997201,0.24864 v 0 q -3.315162,0 -5.942427,-1.51669 -2.635554,-1.5084 -4.143952,-4.14395 -1.516687,-2.62727 -1.516687,-5.90099 v 0 q 0,-3.31516 1.516687,-5.95071 1.508398,-2.62727 4.143952,-4.14396 2.627265,-1.50839 5.942427,-1.50839 v 0 q 3.315162,0 5.925851,1.50839 2.61069,1.51669 4.127377,4.14396 1.508398,2.63555 1.508398,5.95071 v 0 l -1.035988,1.65758 q 0,2.81789 -1.38408,5.05562 -1.392368,2.23774 -3.75442,3.53894 -2.362053,1.30949 -5.387138,1.30949 z m 0,-2.32061 v 0 q 2.61069,0 4.66609,-1.22661 2.047112,-1.21833 3.232283,-3.31517 1.176882,-2.08855 1.176882,-4.69924 v 0 q 0,-2.65213 -1.176882,-4.74897 -1.185171,-2.08855 -3.232283,-3.31516 -2.0554,-1.21832 -4.66609,-1.21832 v 0 q -2.56925,0 -4.641226,1.21832 -2.071976,1.22661 -3.273722,3.31516 -1.201747,2.09684 -1.201747,4.74897 v 0 q 0,2.61069 1.201747,4.69924 1.201746,2.09684 3.273722,3.31517 2.071976,1.22661 4.641226,1.22661 z m 10.35988,2.07197 v 0 q -0.580153,0 -0.928245,-0.35638 -0.35638,-0.34809 -0.35638,-0.8868 v 0 -7.58344 l 0.787351,-2.48637 h 1.69902 v 10.06981 q 0,0.53871 -0.331516,0.8868 -0.331516,0.35638 -0.87023,0.35638 z m 27.018569,0 v 0 q -0.53872,0 -0.88681,-0.35638 -0.35638,-0.34809 -0.35638,-0.8868 v 0 -11.14724 q 0,-2.735 -1.05256,-4.5169 -1.06086,-1.7819 -2.85933,-2.677 -1.80676,-0.8868 -4.08594,-0.8868 v 0 q -2.23773,0 -4.01963,0.84536 -1.7819,0.85366 -2.81789,2.34548 -1.03599,1.49182 -1.03599,3.3566 v 0 h -2.07197 q 0.16576,-2.56925 1.53326,-4.62465 1.3675,-2.04711 3.5638,-3.23228 2.19629,-1.17688 4.84842,-1.17688 v 0 q 2.98365,0 5.37056,1.21832 2.37863,1.22661 3.74614,3.5638 1.3675,2.34547 1.3675,5.78495 v 0 11.14724 q 0,0.53871 -0.34809,0.8868 -0.35638,0.35638 -0.89509,0.35638 z m -18.35771,0 v 0 q -0.53871,0 -0.8868,-0.35638 -0.35638,-0.34809 -0.35638,-0.8868 v 0 -20.18105 q 0,-0.58015 0.35638,-0.91167 0.34809,-0.33152 0.8868,-0.33152 v 0 q 0.58015,0 0.91167,0.33152 0.33151,0.33152 0.33151,0.91167 v 0 20.18105 q 0,0.53871 -0.33151,0.8868 -0.33152,0.35638 -0.91167,0.35638 z m 36.67397,0.24864 v 0 q -3.23228,0 -5.78495,-1.53326 -2.54439,-1.53327 -4.01964,-4.14396 -1.46696,-2.61069 -1.46696,-5.88441 v 0 q 0,-3.31516 1.36751,-5.92585 1.3675,-2.61069 3.771,-4.12738 2.40349,-1.50839 5.51145,-1.50839 v 0 q 2.65213,0 4.84843,1.01112 2.19629,1.01941 3.81243,3.09139 v 0 q 0.33152,0.41439 0.24864,0.87023 -0.0829,0.45583 -0.53872,0.74591 v 0 q -0.37295,0.29008 -0.82879,0.22377 -0.45583,-0.058 -0.78735,-0.47241 v 0 q -2.65213,-3.1494 -6.75464,-3.1494 v 0 q -2.44493,0 -4.29313,1.20174 -1.83992,1.20175 -2.85933,3.27373 -1.01112,2.07197 -1.01112,4.76554 v 0 q 0,2.61069 1.11886,4.69924 1.11887,2.09684 3.0831,3.31517 1.97252,1.22661 4.58321,1.22661 v 0 q 1.69902,0 3.20742,-0.49728 1.51669,-0.49727 2.63556,-1.53326 v 0 q 0.37295,-0.33152 0.82879,-0.37296 0.45583,-0.0414 0.78735,0.29008 v 0 q 0.41439,0.37296 0.43097,0.84537 0.0249,0.48069 -0.34809,0.81221 v 0 q -3.02509,2.77645 -7.542,2.77645 z m 24.57364,-0.0414 v 0 q -3.27372,0 -5.8264,-1.47525 -2.54438,-1.46696 -3.99477,-4.07765 -1.45038,-2.61069 -1.45038,-5.96729 v 0 q 0,-3.39804 1.3675,-5.99215 1.36751,-2.58583 3.771,-4.07765 2.40349,-1.49182 5.51146,-1.49182 v 0 q 3.06652,0 5.42857,1.42551 2.36206,1.43381 3.68812,3.93676 1.32607,2.51123 1.32607,5.78496 v 0 q 0,0.53871 -0.33152,0.84536 -0.33152,0.31494 -0.87023,0.31494 v 0 h -18.23343 v -2.15485 h 18.89642 l -1.82334,1.3675 q 0.0829,-2.69357 -0.91167,-4.76554 -0.99454,-2.07198 -2.84275,-3.25715 -1.83991,-1.17688 -4.32628,-1.17688 v 0 q -2.36206,0 -4.21026,1.17688 -1.83991,1.18517 -2.90076,3.25715 -1.05257,2.07197 -1.05257,4.80698 v 0 q 0,2.69357 1.11887,4.76555 1.11887,2.07197 3.10796,3.24886 1.9891,1.18517 4.55835,1.18517 v 0 q 1.61614,0 3.24886,-0.56358 1.641,-0.55529 2.59411,-1.46696 v 0 q 0.33152,-0.33152 0.80393,-0.35638 0.4807,-0.0166 0.81221,0.2735 v 0 q 0.45584,0.37296 0.47241,0.82879 0.0249,0.45584 -0.38953,0.82879 v 0 q -1.32606,1.20175 -3.46434,1.9891 -2.12999,0.78735 -4.07765,0.78735 z"
             opacity="1"
             fill="#c9c9c9"
             class="undefined-text-1"
             data-fill-palette-color="secondary"
             id="text-1"
             style="fill:#ffffff;stroke-width:0.82879" />
        </svg>
      </g>
    </svg>
  </g>
</svg>
