<?xml version="1.0" encoding="UTF-8" standalone="no"?>
<svg
   version="1.1"
   width="1000"
   height="307"
   viewBox="0 0 1000 307"
   id="svg742"
   sodipodi:docname="fitr.svg"
   inkscape:version="1.2.1 (9c6d41e410, 2022-07-14, custom)"
   xmlns:inkscape="http://www.inkscape.org/namespaces/inkscape"
   xmlns:sodipodi="http://sodipodi.sourceforge.net/DTD/sodipodi-0.dtd"
   xmlns="http://www.w3.org/2000/svg"
   xmlns:svg="http://www.w3.org/2000/svg">
  <defs
     id="defs746" />
  <sodipodi:namedview
     id="namedview744"
     pagecolor="#ffffff"
     bordercolor="#000000"
     borderopacity="0.25"
     inkscape:showpageshadow="2"
     inkscape:pageopacity="0.0"
     inkscape:pagecheckerboard="0"
     inkscape:deskcolor="#d1d1d1"
     showgrid="false"
     inkscape:zoom="1.357"
     inkscape:cx="499.63154"
     inkscape:cy="153.64775"
     inkscape:window-width="1920"
     inkscape:window-height="1050"
     inkscape:window-x="0"
     inkscape:window-y="0"
     inkscape:window-maximized="1"
     inkscape:current-layer="svg742" />
  <g
     transform="matrix(1,0,0,1,-18.16804272724528,-0.1112493248728299)"
     id="g740">
    <svg
       viewBox="0 0 403 124"
       data-background-color="#ffffff"
       preserveAspectRatio="xMidYMid meet"
       height="307"
       width="1000"
       version="1.1"
       id="svg738">
      <defs
         id="defs699" />
      <g
         id="tight-bounds"
         transform="matrix(1,0,0,1,7.321721219079848,0.044934580730398466)">
        <svg
           viewBox="0 0 395.52 116.74669448876487"
           height="116.74669448876487"
           width="395.52"
           version="1.1"
           id="svg733">
          <g
             id="g731">
            <svg
               viewBox="0 0 621.0721743927721 183.32353205730652"
               height="116.74669448876487"
               width="395.52"
               version="1.1"
               id="svg729">
              <g
                 transform="matrix(1,0,0,1,225.55217439277212,2.2230801970310807)"
                 id="g718">
                <svg
                   viewBox="0 0 395.52000000000004 178.87737166324436"
                   height="178.87737166324436"
                   width="395.52000000000004"
                   version="1.1"
                   id="svg716">
                  <g
                     id="g714">
                    <svg
                       viewBox="0 0 395.52000000000004 178.87737166324436"
                       height="178.87737166324436"
                       width="395.52000000000004"
                       version="1.1"
                       id="svg712">
                      <g
                         id="g710">
                        <svg
                           viewBox="0 0 395.52000000000004 178.87737166324436"
                           height="178.87737166324436"
                           width="395.52000000000004"
                           version="1.1"
                           id="svg708">
                          <g
                             transform="matrix(1,0,0,1,0,0)"
                             id="g706">
                            <svg
                               width="395.52000000000004"
                               viewBox="-0.05000000447034836 -43.650001525878906 97.38999938964844 44.05000305175781"
                               height="178.87737166324436"
                               data-palette-color="#000d97"
                               version="1.1"
                               id="svg704">
                              <g
                                 class="undefined-text-0"
                                 data-fill-palette-color="primary"
                                 id="text-0">
                                <path
                                   d="M44.35-41.45Q45.75-41.25 46.28-40.6 46.8-39.95 46.8-38.9L46.8-38.9Q46.8-35.45 43.1-35.7L43.1-35.7 41.35-35.85Q38.4-36.1 35.48-36.25 32.55-36.4 29.35-36.4L29.35-36.4 27.1-36.4Q26.5-29 25.85-22.9L25.85-22.9 34.45-23.05Q36.3-23.05 36.93-22.4 37.55-21.75 37.55-20.65L37.55-20.65Q37.55-18.95 36.55-17.98 35.55-17 33.7-17L33.7-17 25.15-17 24.85-14.85Q23.8-6.6 20.38-3.1 16.95 0.4 10.95 0.4L10.95 0.4Q7.55 0.4 4.7-1.07 1.85-2.55 0.5-4.65L0.5-4.65Q-0.05-5.5-0.05-6.7L-0.05-6.7Q-0.05-7.9 0.53-8.8 1.1-9.7 1.95-9.7L1.95-9.7Q2.55-9.7 3.13-9.3 3.7-8.9 4.6-7.75L4.6-7.75Q7-4.6 10.55-4.6L10.55-4.6Q13.4-4.6 15.33-6.93 17.25-9.25 17.8-14.25L17.8-14.25 18.1-17 15.7-17Q14.55-17 13.73-17.65 12.9-18.3 12.9-19.5L12.9-19.5Q12.9-21.05 13.7-21.88 14.5-22.7 16.05-22.7L16.05-22.7Q17.45-22.7 18.8-22.75L18.8-22.75Q19.4-28.25 20.1-36.1L20.1-36.1Q14.7-35.6 12.5-34.35 10.3-33.1 10.3-30.65L10.3-30.65Q10.3-28.95 11.3-27.4L11.3-27.4Q11.6-26.95 11.6-26.5L11.6-26.5Q11.6-25.6 10.6-24.93 9.6-24.25 8.35-24.25L8.35-24.25Q7-24.25 6.05-25.05L6.05-25.05Q5.45-25.55 4.9-27.1 4.35-28.65 4.35-30.55L4.35-30.55Q4.35-36.75 10.73-39.55 17.1-42.35 29.35-42.35L29.35-42.35Q37.85-42.35 44.35-41.45L44.35-41.45ZM44.55-26.6Q42.45-26.6 41.4-27.58 40.35-28.55 40.35-30.3L40.35-30.3Q40.35-32.05 41.72-33.23 43.1-34.4 45.15-34.4L45.15-34.4Q47-34.4 48.15-33.5 49.3-32.6 49.3-30.95L49.3-30.95Q49.3-28.95 48-27.78 46.7-26.6 44.55-26.6L44.55-26.6ZM44.15 0.25Q40.9 0.25 39.42-2.05 37.95-4.35 37.95-8.15L37.95-8.15Q37.95-10.4 38.52-13.93 39.1-17.45 40-20.5L40-20.5Q40.45-22.1 41.2-22.7 41.95-23.3 43.6-23.3L43.6-23.3Q46.15-23.3 46.15-21.6L46.15-21.6Q46.15-20.35 45.2-15.8L45.2-15.8Q44-10.3 44-8.35L44-8.35Q44-6.85 44.4-6.05 44.8-5.25 45.75-5.25L45.75-5.25Q46.65-5.25 48-6.5 49.35-7.75 51.6-10.45L51.6-10.45Q52.2-11.15 52.95-11.15L52.95-11.15Q53.6-11.15 53.97-10.55 54.35-9.95 54.35-8.9L54.35-8.9Q54.35-6.9 53.4-5.8L53.4-5.8Q48.45 0.25 44.15 0.25L44.15 0.25ZM72.6-11.15Q73.25-11.15 73.62-10.55 74-9.95 74-8.9L74-8.9Q74-6.9 73.05-5.8L73.05-5.8Q70.9-3.15 68.35-1.45 65.8 0.25 62.5 0.25L62.5 0.25Q52.3 0.25 52.3-14.1L52.3-14.1Q52.3-16.3 52.45-18.55L52.45-18.55 50.5-18.55Q49-18.55 48.47-19.1 47.95-19.65 47.95-20.85L47.95-20.85Q47.95-23.65 50.2-23.65L50.2-23.65 53.05-23.65Q53.9-29.15 55.65-33.7 57.4-38.25 59.87-40.95 62.35-43.65 65.2-43.65L65.2-43.65Q67.3-43.65 68.5-41.8 69.7-39.95 69.7-37.15L69.7-37.15Q69.7-29.4 63.2-23.65L63.2-23.65 68.8-23.65Q69.6-23.65 69.95-23.3 70.3-22.95 70.3-22L70.3-22Q70.3-18.55 64.65-18.55L64.65-18.55 58.55-18.55Q58.45-16.05 58.45-14.65L58.45-14.65Q58.45-9.45 59.67-7.35 60.9-5.25 63.55-5.25L63.55-5.25Q65.7-5.25 67.35-6.55 69-7.85 71.25-10.45L71.25-10.45Q71.85-11.15 72.6-11.15L72.6-11.15ZM63.85-38.85Q63.1-38.85 62.17-36.98 61.25-35.1 60.42-31.78 59.6-28.45 59.05-24.4L59.05-24.4Q62-26.95 63.47-30.13 64.95-33.3 64.95-35.9L64.95-35.9Q64.95-38.85 63.85-38.85L63.85-38.85ZM73.49 0.25Q71.59 0.25 70.82-1.75 70.04-3.75 70.04-8.15L70.04-8.15Q70.04-14.65 71.89-20.5L71.89-20.5Q72.34-21.95 73.37-22.63 74.39-23.3 76.24-23.3L76.24-23.3Q77.24-23.3 77.64-23.05 78.04-22.8 78.04-22.1L78.04-22.1Q78.04-21.3 77.29-18.5L77.29-18.5Q76.79-16.5 76.49-15 76.19-13.5 75.99-11.3L75.99-11.3Q77.64-15.6 79.69-18.3 81.74-21 83.72-22.15 85.69-23.3 87.34-23.3L87.34-23.3Q90.59-23.3 90.59-20.05L90.59-20.05Q90.59-19.4 90.14-16.9L90.14-16.9Q89.74-14.9 89.74-14.4L89.74-14.4Q89.74-12.65 90.99-12.65L90.99-12.65Q92.39-12.65 94.59-14.85L94.59-14.85Q95.24-15.5 95.94-15.5L95.94-15.5Q96.59-15.5 96.97-14.93 97.34-14.35 97.34-13.4L97.34-13.4Q97.34-11.55 96.34-10.5L96.34-10.5Q94.94-9.05 93.07-8.03 91.19-7 89.09-7L89.09-7Q86.44-7 85.07-8.35 83.69-9.7 83.69-12L83.69-12Q83.69-12.75 83.84-13.5L83.84-13.5Q83.94-14.5 83.94-14.85L83.94-14.85Q83.94-15.65 83.39-15.65L83.39-15.65Q82.64-15.65 81.42-13.98 80.19-12.3 78.99-9.55 77.79-6.8 77.04-3.75L77.04-3.75Q76.49-1.4 75.77-0.58 75.04 0.25 73.49 0.25L73.49 0.25Z"
                                   fill="#000d97"
                                   data-fill-palette-color="primary"
                                   id="path701"
                                   style="fill:#ffffff" />
                              </g>
                            </svg>
                          </g>
                        </svg>
                      </g>
                    </svg>
                  </g>
                </svg>
              </g>
              <g
                 id="g727">
                <svg
                   viewBox="0 0 183.32352000000003 183.32353205730652"
                   height="183.32353205730652"
                   width="183.32352000000003"
                   version="1.1"
                   id="svg725">
                  <g
                     id="g723">
                    <svg
                       data-name="Layer 1"
                       viewBox="21.000003814697266 21 57.999996185302734 58"
                       x="0"
                       y="0"
                       height="183.32353205730652"
                       width="183.32352000000003"
                       class="icon-icon-0"
                       data-fill-palette-color="accent"
                       id="icon-0"
                       version="1.1">
                      <path
                         d="M62.5 21A16.52 16.52 0 0 0 46 37.5V46H37.5A16.5 16.5 0 1 0 54 62.5V54h8.5a16.5 16.5 0 0 0 0-33ZM46 62.5A8.5 8.5 0 1 1 37.5 54H46ZM62.5 46H54V37.5A8.5 8.5 0 1 1 62.5 46Z"
                         fill="#ff003a"
                         data-fill-palette-color="accent"
                         id="path720"
                         style="fill:#ffffff" />
                    </svg>
                  </g>
                </svg>
              </g>
            </svg>
          </g>
        </svg>
        <rect
           width="395.52"
           height="116.74669448876487"
           fill="none"
           stroke="none"
           visibility="hidden"
           id="rect735" />
      </g>
    </svg>
  </g>
</svg>
