<?xml version="1.0" encoding="UTF-8" standalone="no"?>
<svg
   version="1.1"
   width="1000"
   height="214"
   viewBox="0 0 1000 214"
   id="svg834"
   sodipodi:docname="habgo.svg"
   inkscape:version="1.2.1 (9c6d41e410, 2022-07-14, custom)"
   xmlns:inkscape="http://www.inkscape.org/namespaces/inkscape"
   xmlns:sodipodi="http://sodipodi.sourceforge.net/DTD/sodipodi-0.dtd"
   xmlns="http://www.w3.org/2000/svg"
   xmlns:svg="http://www.w3.org/2000/svg">
  <defs
     id="defs838" />
  <sodipodi:namedview
     id="namedview836"
     pagecolor="#ffffff"
     bordercolor="#000000"
     borderopacity="0.25"
     inkscape:showpageshadow="2"
     inkscape:pageopacity="0.0"
     inkscape:pagecheckerboard="0"
     inkscape:deskcolor="#d1d1d1"
     showgrid="false"
     inkscape:zoom="1.357"
     inkscape:cx="499.63154"
     inkscape:cy="107.22181"
     inkscape:window-width="1920"
     inkscape:window-height="1050"
     inkscape:window-x="0"
     inkscape:window-y="0"
     inkscape:window-maximized="1"
     inkscape:current-layer="svg834" />
  <g
     transform="matrix(1,0,0,1,-0.6060441736715347,0.23969776727159342)"
     id="g832">
    <svg
       viewBox="0 0 396 85"
       data-background-color="#ffffff"
       preserveAspectRatio="xMidYMid meet"
       height="214"
       width="1000"
       version="1.1"
       id="svg830">
      <defs
         id="defs800" />
      <g
         id="tight-bounds"
         transform="matrix(1,0,0,1,0.23999349277391957,-0.0952070570938588)">
        <svg
           viewBox="0 0 395.52 85.1904141141877"
           height="85.1904141141877"
           width="395.52"
           version="1.1"
           id="svg825">
          <g
             id="g823">
            <svg
               viewBox="0 0 395.52 85.1904141141877"
               height="85.1904141141877"
               width="395.52"
               version="1.1"
               id="svg821">
              <g
                 id="g817">
                <svg
                   viewBox="0 0 395.52 85.1904141141877"
                   height="85.1904141141877"
                   width="395.52"
                   version="1.1"
                   id="svg815">
                  <g
                     id="g813">
                    <svg
                       viewBox="0 0 395.52 85.1904141141877"
                       height="85.1904141141877"
                       width="395.52"
                       version="1.1"
                       id="svg811">
                      <g
                         id="g809">
                        <svg
                           viewBox="0 0 395.52 85.1904141141877"
                           height="85.1904141141877"
                           width="395.52"
                           version="1.1"
                           id="svg807">
                          <g
                             transform="matrix(1,0,0,1,0,0)"
                             id="g805">
                            <svg
                               width="395.52"
                               viewBox="2.25 -37.25 204.0399932861328 43.95000076293945"
                               height="85.1904141141877"
                               data-palette-color="#1e55b3"
                               version="1.1"
                               id="svg803">
                              <path
                                 d="M15.1-4.5L14.6-4.5 14.6-31.5 15.1-31.5 15.1-18.25 34.3-18.25 34.3-31.5 34.8-31.5 34.8-4.5 34.3-4.5 34.3-17.75 15.1-17.75 15.1-4.5ZM11 0L18.75 0Q19.7 0 20.13-0.43 20.55-0.85 20.55-1.8L20.55-1.8 20.55-12.9 28.9-12.9 28.9-1.8Q28.9-0.85 29.33-0.43 29.75 0 30.7 0L30.7 0 38.45 0Q39.4 0 39.83-0.43 40.25-0.85 40.25-1.8L40.25-1.8 40.25-34.2Q40.25-35.15 39.83-35.58 39.4-36 38.45-36L38.45-36 30.7-36Q29.75-36 29.33-35.58 28.9-35.15 28.9-34.2L28.9-34.2 28.9-23.35 20.55-23.35 20.55-34.2Q20.55-35.15 20.13-35.58 19.7-36 18.75-36L18.75-36 11-36Q10.05-36 9.63-35.58 9.2-35.15 9.2-34.2L9.2-34.2 9.2-1.8Q9.2-0.85 9.63-0.43 10.05 0 11 0L11 0ZM20.35 0.05L20.35 0.05 13.85 5.45Q13.65 5.65 13.23 5.8 12.8 5.95 12.3 5.95L12.3 5.95 4.55 5.95Q3.35 5.95 2.8 5.4 2.25 4.85 2.25 3.65L2.25 3.65 2.25-28.75Q2.25-29.4 2.43-29.85 2.6-30.3 2.95-30.6L2.95-30.6 9.4-36.05Q9.65-36.25 10.08-36.38 10.5-36.5 11-36.5L11-36.5 18.75-36.5Q19.95-36.5 20.5-35.95 21.05-35.4 21.05-34.2L21.05-34.2 21.05-23.85 21.95-23.85 21.95-28.75Q21.95-29.4 22.13-29.85 22.3-30.3 22.65-30.6L22.65-30.6 29.1-36.05Q29.35-36.25 29.78-36.38 30.2-36.5 30.7-36.5L30.7-36.5 38.45-36.5Q39.65-36.5 40.2-35.95 40.75-35.4 40.75-34.2L40.75-34.2 40.75-1.8Q40.75-1.15 40.58-0.7 40.4-0.25 40.05 0.05L40.05 0.05 33.55 5.45Q33.35 5.65 32.93 5.8 32.5 5.95 32 5.95L32 5.95 24.25 5.95Q23.05 5.95 22.5 5.4 21.95 4.85 21.95 3.65L21.95 3.65 21.95-6.95 21.05-6.95 21.05-1.8Q21.05-1.15 20.88-0.7 20.7-0.25 20.35 0.05ZM57.2-15.15L57.2-15.15 57.2-13.6 76.7-13.6 76.7-15.15Q76.7-16.5 76.47-17.65 76.25-18.8 75.9-19.8L75.9-19.8 72.45-27.95Q71.9-29.25 71.3-30.13 70.7-31 69.3-31L69.3-31 64.4-31Q62.9-31 62.3-30.13 61.7-29.25 61.2-28L61.2-28 58-19.8Q57.65-18.8 57.42-17.65 57.2-16.5 57.2-15.15ZM62.85-17.9L65.2-25.5Q65.4-25.95 65.62-26.15 65.85-26.35 66.15-26.35L66.15-26.35 67.4-26.35Q67.7-26.35 67.92-26.15 68.15-25.95 68.35-25.5L68.35-25.5 70.7-17.9 62.85-17.9ZM77.2-4.5L76.7-4.5 76.7-13.1 57.2-13.1 57.2-4.5 56.7-4.5 56.7-15.15Q56.7-16.55 56.92-17.73 57.15-18.9 57.55-20L57.55-20 60.75-28.2Q61.3-29.6 62-30.55 62.7-31.5 64.4-31.5L64.4-31.5 69.3-31.5Q70.95-31.5 71.62-30.55 72.3-29.6 72.9-28.15L72.9-28.15 76.35-20Q76.75-18.9 76.97-17.73 77.2-16.55 77.2-15.15L77.2-15.15 77.2-4.5ZM62.35-1.8L62.35-1.8 62.35-8.8 71.2-8.8 71.2-1.8Q71.2-0.85 71.67-0.43 72.15 0 73.15 0L73.15 0 80.7 0Q81.65 0 82.07-0.43 82.5-0.85 82.5-1.8L82.5-1.8 82.5-15Q82.5-16.5 82.02-18.45 81.55-20.4 80.55-23L80.55-23 76.2-34.35Q75.9-35.2 75.27-35.6 74.65-36 73.7-36L73.7-36 60.25-36Q59.25-36 58.62-35.6 58-35.2 57.7-34.35L57.7-34.35 53.35-23Q52.35-20.4 51.87-18.45 51.4-16.5 51.4-15L51.4-15 51.4-1.8Q51.4-0.85 51.82-0.43 52.25 0 53.2 0L53.2 0 60.55 0Q61.5 0 61.92-0.43 62.35-0.85 62.35-1.8ZM62.15 0.05L55.65 5.45Q55.45 5.65 55.02 5.8 54.6 5.95 54.1 5.95L54.1 5.95 46.75 5.95Q45.55 5.95 45 5.4 44.45 4.85 44.45 3.65L44.45 3.65 44.45-9.55Q44.45-11.1 44.92-13.08 45.4-15.05 46.45-17.75L46.45-17.75 50.75-29.05Q50.9-29.5 51.12-29.83 51.35-30.15 51.6-30.4L51.6-30.4 51.65-30.45 58.05-35.8Q58.45-36.15 59-36.33 59.55-36.5 60.25-36.5L60.25-36.5 73.7-36.5Q74.85-36.5 75.57-36.02 76.3-35.55 76.65-34.55L76.65-34.55 81-23.2Q82.05-20.5 82.52-18.53 83-16.55 83-15L83-15 83-1.8Q83-1.15 82.82-0.7 82.65-0.25 82.3 0.05L82.3 0.05 75.8 5.45Q75.6 5.65 75.17 5.8 74.75 5.95 74.25 5.95L74.25 5.95 66.7 5.95Q65.45 5.95 64.85 5.38 64.25 4.8 64.25 3.65L64.25 3.65 64.25-2.85 62.85-2.85 62.85-1.8Q62.85-1.15 62.67-0.7 62.5-0.25 62.15 0.05L62.15 0.05ZM108.2 5.95L89 5.95Q87.8 5.95 87.25 5.4 86.7 4.85 86.7 3.65L86.7 3.65 86.7-28.75Q86.7-29.4 86.87-29.85 87.05-30.3 87.4-30.6L87.4-30.6 93.85-36.05Q94.1-36.25 94.52-36.38 94.95-36.5 95.45-36.5L95.45-36.5 111.4-36.5Q116.59-36.5 119.05-34.48 121.5-32.45 121.5-28.35L121.5-28.35 121.5-25.95Q121.5-24.2 121.02-22.95 120.55-21.7 119.59-20.95L119.59-20.95 119.45-20.85Q122.15-20.25 123.5-18.28 124.85-16.3 124.85-12.8L124.85-12.8 124.85-8.2Q124.85-5.95 124.2-4.33 123.55-2.7 122.25-1.6L122.25-1.6 115.8 3.85Q114.55 4.9 112.65 5.43 110.75 5.95 108.2 5.95L108.2 5.95ZM95.45 0L114.65 0Q119.59 0 121.97-2 124.35-4 124.35-8.2L124.35-8.2 124.35-12.8Q124.35-16.45 122.8-18.35 121.25-20.25 118.05-20.55L118.05-20.55Q119.55-21.2 120.27-22.53 121-23.85 121-25.95L121-25.95 121-28.35Q121-32.25 118.65-34.13 116.3-36 111.4-36L111.4-36 95.45-36Q94.5-36 94.07-35.58 93.65-35.15 93.65-34.2L93.65-34.2 93.65-1.8Q93.65-0.85 94.07-0.43 94.5 0 95.45 0L95.45 0ZM112.65-4.5L112.65-4.5 99.2-4.5 99.2-31.5 109.35-31.5Q111.4-31.5 112.7-31.08 114-30.65 114.7-29.93 115.4-29.2 115.65-28.25 115.9-27.3 115.9-26.2L115.9-26.2 115.9-23Q115.9-21.5 115.37-20.25 114.85-19 112.7-18.45L112.7-18.45Q114.75-18.45 116.05-18.03 117.34-17.6 118.05-16.82 118.75-16.05 118.97-15 119.2-13.95 119.2-12.7L119.2-12.7 119.2-9.5Q119.2-8.4 118.95-7.48 118.7-6.55 118.02-5.9 117.34-5.25 116.05-4.88 114.75-4.5 112.65-4.5ZM109.35-31L109.35-31 99.7-31 99.7-18.45 109.35-18.45Q111.4-18.45 112.6-18.82 113.8-19.2 114.42-19.83 115.05-20.45 115.22-21.28 115.4-22.1 115.4-23L115.4-23 115.4-26.2Q115.4-28.2 114.25-29.6 113.1-31 109.35-31ZM104.9-22.1L104.9-27.5 109.15-27.5Q110.1-27.5 110.57-27 111.05-26.5 111.05-25.5L111.05-25.5 111.05-24.1Q111.05-23.1 110.57-22.6 110.1-22.1 109.15-22.1L109.15-22.1 104.9-22.1ZM112.7-17.95L112.7-17.95 99.7-17.95 99.7-5 112.65-5Q116.4-5 117.55-6.23 118.7-7.45 118.7-9.5L118.7-9.5 118.7-12.7Q118.7-14.95 117.57-16.45 116.45-17.95 112.7-17.95ZM104.9-8.5L104.9-14.4 111.4-14.4Q112.35-14.4 112.82-13.93 113.3-13.45 113.3-12.45L113.3-12.45 113.3-10.5Q113.3-9.5 112.82-9 112.35-8.5 111.4-8.5L111.4-8.5 104.9-8.5ZM155.94 5.95L155.94 5.95 140.19 5.95Q133.64 5.95 130.52 2.55 127.39-0.85 127.39-6.25L127.39-6.25 127.39-20.35Q127.39-23.1 128.19-25.1 128.99-27.1 130.54-28.45L130.54-28.45 136.99-33.9Q138.54-35.2 140.97-35.85 143.39-36.5 146.64-36.5L146.64-36.5 159.14-36.5Q160.34-36.5 160.89-35.95 161.44-35.4 161.44-34.2L161.44-34.2 161.44-28.15Q161.44-27.5 161.27-27.05 161.09-26.6 160.74-26.3L160.74-26.3 154.24-20.9Q154.04-20.7 153.62-20.55 153.19-20.4 152.69-20.4L152.69-20.4 146.19-20.4 146.19-13.2Q146.24-13.3 146.37-13.43 146.49-13.55 146.59-13.65L146.59-13.65 153.04-19.1Q153.29-19.3 153.72-19.43 154.14-19.55 154.64-19.55L154.64-19.55 162.39-19.55Q163.59-19.55 164.14-19 164.69-18.45 164.69-17.25L164.69-17.25 164.69-1.8Q164.69-1.15 164.52-0.7 164.34-0.25 163.99 0.05L163.99 0.05 157.49 5.45Q157.29 5.65 156.87 5.8 156.44 5.95 155.94 5.95ZM146.64 0L162.39 0Q163.34 0 163.77-0.43 164.19-0.85 164.19-1.8L164.19-1.8 164.19-17.25Q164.19-18.2 163.77-18.63 163.34-19.05 162.39-19.05L162.39-19.05 154.64-19.05Q153.69-19.05 153.27-18.63 152.84-18.2 152.84-17.25L152.84-17.25 152.84-9.45 147.99-9.45Q146.84-9.45 146.27-10.05 145.69-10.65 145.69-11.9L145.69-11.9 145.69-23.85Q145.69-25.1 146.44-25.73 147.19-26.35 148.74-26.35L148.74-26.35 159.14-26.35Q160.09-26.35 160.52-26.78 160.94-27.2 160.94-28.15L160.94-28.15 160.94-34.2Q160.94-35.15 160.52-35.58 160.09-36 159.14-36L159.14-36 146.64-36Q140.39-36 137.37-33.5 134.34-31 134.34-25.8L134.34-25.8 134.34-10.2Q134.34-5 137.37-2.5 140.39 0 146.64 0L146.64 0ZM158.74-4.5L148.79-4.5Q146.04-4.5 144.29-4.85 142.54-5.2 141.54-5.98 140.54-6.75 140.17-7.98 139.79-9.2 139.79-10.95L139.79-10.95 139.79-24.95Q139.79-28.5 141.39-30 142.99-31.5 147.79-31.5L147.79-31.5 156.44-31.5 156.44-31 147.79-31Q143.39-31 141.84-29.63 140.29-28.25 140.29-24.95L140.29-24.95 140.29-10.95Q140.29-7.7 142.02-6.35 143.74-5 148.79-5L148.79-5 158.24-5 158.24-14.55 158.74-14.55 158.74-4.5ZM203.29-1.85L196.84 3.55Q195.09 5.05 191.94 5.88 188.79 6.7 183.84 6.7L183.84 6.7Q178.94 6.7 175.82 5.68 172.69 4.65 170.92 2.95 169.14 1.25 168.47-0.95 167.79-3.15 167.79-5.5L167.79-5.5 167.79-21.05Q167.79-23.35 168.44-25.33 169.09-27.3 170.79-28.7L170.79-28.7 177.29-34.1Q179.04-35.6 182.17-36.43 185.29-37.25 190.29-37.25L190.29-37.25Q195.19-37.25 198.32-36.45 201.44-35.65 203.22-34.23 204.99-32.8 205.64-30.83 206.29-28.85 206.29-26.5L206.29-26.5 206.29-9.45Q206.29-7.15 205.64-5.2 204.99-3.25 203.29-1.85L203.29-1.85ZM205.79-9.45L205.79-9.45 205.79-26.5Q205.79-28.8 205.12-30.68 204.44-32.55 202.72-33.9 200.99-35.25 197.97-36 194.94-36.75 190.29-36.75L190.29-36.75Q185.64-36.75 182.59-36 179.54-35.25 177.82-33.9 176.09-32.55 175.42-30.68 174.74-28.8 174.74-26.5L174.74-26.5 174.74-9.45Q174.74-7.15 175.42-5.28 176.09-3.4 177.82-2.08 179.54-0.75 182.59 0 185.64 0.75 190.29 0.75L190.29 0.75Q194.94 0.75 197.97 0 200.99-0.75 202.72-2.08 204.44-3.4 205.12-5.28 205.79-7.15 205.79-9.45ZM200.34-25.35L200.34-10.6Q200.34-7.6 198.19-5.73 196.04-3.85 190.19-3.85L190.19-3.85Q184.34-3.85 182.24-5.73 180.14-7.6 180.14-10.6L180.14-10.6 180.14-25.35Q180.14-28.35 182.24-30.23 184.34-32.1 190.19-32.1L190.19-32.1Q196.04-32.1 198.19-30.23 200.34-28.35 200.34-25.35L200.34-25.35ZM180.64-25.35L180.64-10.6Q180.64-7.8 182.64-6.08 184.64-4.35 190.19-4.35L190.19-4.35Q195.74-4.35 197.79-6.08 199.84-7.8 199.84-10.6L199.84-10.6 199.84-25.35Q199.84-28.15 197.79-29.88 195.74-31.6 190.19-31.6L190.19-31.6Q184.64-31.6 182.64-29.88 180.64-28.15 180.64-25.35L180.64-25.35ZM186.09-11.25L186.09-11.25 186.09-24.7Q186.09-25.65 186.84-26.33 187.59-27 190.29-27L190.29-27Q192.99-27 193.74-26.33 194.49-25.65 194.49-24.7L194.49-24.7 194.49-11.25Q194.49-10.25 193.74-9.58 192.99-8.9 190.29-8.9L190.29-8.9Q187.59-8.9 186.84-9.58 186.09-10.25 186.09-11.25ZM186.59-20.7L186.59-11.25Q186.59-10.75 186.79-10.38 186.99-10 187.54-9.75L187.54-9.75 187.54-19.25Q187.54-19.75 187.34-20.13 187.14-20.5 186.59-20.7L186.59-20.7Z"
                                 opacity="1"
                                 transform="matrix(1,0,0,1,0,0)"
                                 fill="#1e55b3"
                                 class="undefined-text-0"
                                 data-fill-palette-color="primary"
                                 id="text-0"
                                 style="fill:#ffffff" />
                            </svg>
                          </g>
                        </svg>
                      </g>
                    </svg>
                  </g>
                </svg>
              </g>
              <g
                 id="g819" />
            </svg>
          </g>
        </svg>
        <rect
           width="395.52"
           height="85.1904141141877"
           fill="none"
           stroke="none"
           visibility="hidden"
           id="rect827" />
      </g>
    </svg>
  </g>
</svg>
