<?xml version="1.0" encoding="UTF-8" standalone="no"?>
<svg
   version="1.1"
   width="1000"
   height="368"
   viewBox="0 0 1000 368"
   id="svg929"
   sodipodi:docname="jambox.svg"
   inkscape:version="1.2.1 (9c6d41e410, 2022-07-14, custom)"
   xmlns:inkscape="http://www.inkscape.org/namespaces/inkscape"
   xmlns:sodipodi="http://sodipodi.sourceforge.net/DTD/sodipodi-0.dtd"
   xmlns="http://www.w3.org/2000/svg"
   xmlns:svg="http://www.w3.org/2000/svg">
  <defs
     id="defs933" />
  <sodipodi:namedview
     id="namedview931"
     pagecolor="#ffffff"
     bordercolor="#000000"
     borderopacity="0.25"
     inkscape:showpageshadow="2"
     inkscape:pageopacity="0.0"
     inkscape:pagecheckerboard="0"
     inkscape:deskcolor="#d1d1d1"
     showgrid="false"
     inkscape:zoom="1.357"
     inkscape:cx="499.63154"
     inkscape:cy="184.59838"
     inkscape:window-width="1920"
     inkscape:window-height="1050"
     inkscape:window-x="0"
     inkscape:window-y="0"
     inkscape:window-maximized="1"
     inkscape:current-layer="svg929" />
  <g
     transform="matrix(1,0,0,1,-0.6060606060606233,0.02428448462188726)"
     id="g927">
    <svg
       viewBox="0 0 396 146"
       data-background-color="#ffffff"
       preserveAspectRatio="xMidYMid meet"
       height="368"
       width="1000"
       version="1.1"
       id="svg925">
      <defs
         id="defs882" />
      <g
         id="tight-bounds"
         transform="matrix(1,0,0,1,0.2400000000000091,-0.00963460531194471)">
        <svg
           viewBox="0 0 395.52 146.0192692106239"
           height="146.0192692106239"
           width="395.52"
           version="1.1"
           id="svg920">
          <g
             id="g918">
            <svg
               viewBox="0 0 395.52 146.0192692106239"
               height="146.0192692106239"
               width="395.52"
               version="1.1"
               id="svg916">
              <g
                 id="g899">
                <svg
                   viewBox="0 0 395.52 55.77350283590847"
                   height="55.77350283590847"
                   width="395.52"
                   version="1.1"
                   id="svg897">
                  <g
                     id="g895">
                    <svg
                       viewBox="0 0 395.52 55.77350283590847"
                       height="55.77350283590847"
                       width="395.52"
                       version="1.1"
                       id="svg893">
                      <g
                         id="g891">
                        <svg
                           viewBox="0 0 395.52 55.77350283590847"
                           height="55.77350283590847"
                           width="395.52"
                           version="1.1"
                           id="svg889">
                          <g
                             transform="matrix(1,0,0,1,0,0)"
                             id="g887">
                            <svg
                               width="395.52"
                               viewBox="-0.5 -35.650001525878906 255.6300048828125 36.05000305175781"
                               height="55.77350283590847"
                               data-palette-color="#8b8b8b"
                               version="1.1"
                               id="svg885">
                              <path
                                 d="M-0.3 0.3L-0.5-1.6 2.05-1.8Q4.85-2 6.43-3.93 8-5.85 8-8.95L8-8.95 8-35.25 10.05-35.25 10.05-8.85Q10.05-4.85 8.03-2.5 6-0.15 2.2 0.1L2.2 0.1-0.3 0.3ZM61.14 0L58.95 0 54.75-9.75 35.2-9.75 31 0 28.84 0 44-35.25 46-35.25 61.14 0ZM45-32.55L36.05-11.75 53.89-11.75 45-32.55ZM96.19-7.5L110.49-35.25 112.34-35.25 112.34 0 110.29 0 110.34-30.85 97.04-5.5 95.34-5.5 81.94-30.65 81.99 0 79.94 0 79.94-35.25 81.74-35.25 96.19-7.5ZM152.78-18.05Q155.84-17.3 157.51-15.08 159.19-12.85 159.19-9.55L159.19-9.55Q159.19-4.85 156.24-2.43 153.28 0 147.78 0L147.78 0 134.24 0 134.24-35.25 147.24-35.25Q152.59-35.25 155.49-32.88 158.38-30.5 158.38-26L158.38-26Q158.38-23.1 156.91-21.08 155.44-19.05 152.78-18.05L152.78-18.05ZM136.34-33.3L136.34-18.9 146.99-18.9Q151.49-18.9 153.84-20.8 156.19-22.7 156.19-26.3L156.19-26.3Q156.19-33.3 146.99-33.3L146.99-33.3 136.34-33.3ZM147.74-1.95Q152.44-1.95 154.71-3.75 156.99-5.55 156.99-9.3L156.99-9.3Q156.99-13.05 154.66-14.98 152.34-16.9 147.74-16.9L147.74-16.9 136.34-16.9 136.34-1.95 147.74-1.95ZM193.73 0.4Q189.03 0.4 185.56-1.78 182.08-3.95 180.21-8.03 178.33-12.1 178.33-17.6L178.33-17.6Q178.33-23.15 180.18-27.23 182.03-31.3 185.51-33.48 188.98-35.65 193.73-35.65L193.73-35.65Q198.48-35.65 201.98-33.48 205.48-31.3 207.33-27.25 209.18-23.2 209.18-17.65L209.18-17.65Q209.18-12.1 207.31-8.03 205.43-3.95 201.96-1.78 198.48 0.4 193.73 0.4L193.73 0.4ZM193.73-1.65Q200.03-1.65 203.48-5.85 206.93-10.05 206.93-17.65L206.93-17.65Q206.93-25.25 203.51-29.43 200.08-33.6 193.73-33.6L193.73-33.6Q187.48-33.6 184.03-29.43 180.58-25.25 180.58-17.65L180.58-17.65Q180.58-10.05 184.03-5.85 187.48-1.65 193.73-1.65L193.73-1.65ZM254.38-35.25L241.83-18.05 255.13 0 252.68 0 240.63-16.5 228.53 0 226.03 0 239.43-18.15 226.83-35.25 229.28-35.25 240.68-19.75 251.98-35.25 254.38-35.25Z"
                                 opacity="1"
                                 transform="matrix(1,0,0,1,0,0)"
                                 fill="#8b8b8b"
                                 class="undefined-text-0"
                                 data-fill-palette-color="primary"
                                 id="text-0"
                                 style="fill:#ffffff" />
                            </svg>
                          </g>
                        </svg>
                      </g>
                    </svg>
                  </g>
                </svg>
              </g>
              <g
                 transform="matrix(1,0,0,1,157.32183914069958,68.94028829139839)"
                 id="g912">
                <svg
                   viewBox="0 0 80.87632171860083 77.0789809192255"
                   height="77.0789809192255"
                   width="80.87632171860083"
                   version="1.1"
                   id="svg910">
                  <g
                     id="g908">
                    <svg
                       version="1.1"
                       x="0"
                       y="0"
                       viewBox="2.877999782562256 5.044000148773193 95.01100158691406 90.55000305175781"
                       enable-background="new 0 0 100 100"
                       xml:space="preserve"
                       height="77.0789809192255"
                       width="80.87632171860083"
                       class="icon-icon-0"
                       data-fill-palette-color="accent"
                       id="icon-0"><path
                         d="M49.687 95.594L8.752 72.262l0.516-33.425-6.39-27.494 29.223 15.454L45.634 23 55.665 5.044l42.224 20.391L85.924 46.337l0.523 36.208L49.687 95.594zM36.764 29.262l13.273 7.014 1.633 22.198 0.005 32.558 31.104-11.038-0.502-34.598 10.524-18.385L57.169 9.803l-9.1 16.287L36.764 29.262zM12.418 70.172l35.624 20.305V58.607l-1.481-20.06L8.218 18.277l4.69 20.17L12.418 70.172z"
                         fill="#d7d7d7"
                         data-fill-palette-color="accent"
                         id="path901"
                         style="fill:#ffffff" /><path
                         d="M49.787 60.484c-0.285 0-0.571-0.067-0.831-0.201L10.181 40.312c-0.893-0.46-1.242-1.554-0.784-2.446 0.461-0.891 1.56-1.239 2.446-0.784l38.063 19.603 29.798-11.096L46.04 26.856c-0.876-0.489-1.191-1.595-0.704-2.471 0.487-0.875 1.595-1.188 2.47-0.704L84.91 44.327c0.621 0.346 0.983 1.019 0.93 1.725-0.054 0.708-0.515 1.318-1.178 1.565l-34.24 12.753C50.216 60.446 50.002 60.484 49.787 60.484z"
                         fill="#d7d7d7"
                         data-fill-palette-color="accent"
                         id="path903"
                         style="fill:#ffffff" /><rect
                         x="44.646"
                         y="26.556"
                         width="3.633"
                         height="9.294"
                         fill="#d7d7d7"
                         data-fill-palette-color="accent"
                         id="rect905"
                         style="fill:#ffffff" /></svg>
                  </g>
                </svg>
              </g>
              <g
                 id="g914" />
            </svg>
          </g>
        </svg>
        <rect
           width="395.52"
           height="146.0192692106239"
           fill="none"
           stroke="none"
           visibility="hidden"
           id="rect922" />
      </g>
    </svg>
  </g>
</svg>
