<?xml version="1.0" encoding="UTF-8" standalone="no"?>
<svg
   version="1.1"
   width="1000"
   height="292"
   viewBox="0 0 1000 292"
   id="svg47"
   sodipodi:docname="nftix.svg"
   inkscape:version="1.2.1 (9c6d41e410, 2022-07-14, custom)"
   xmlns:inkscape="http://www.inkscape.org/namespaces/inkscape"
   xmlns:sodipodi="http://sodipodi.sourceforge.net/DTD/sodipodi-0.dtd"
   xmlns="http://www.w3.org/2000/svg"
   xmlns:svg="http://www.w3.org/2000/svg">
  <defs
     id="defs51" />
  <sodipodi:namedview
     id="namedview49"
     pagecolor="#ffffff"
     bordercolor="#000000"
     borderopacity="0.25"
     inkscape:showpageshadow="2"
     inkscape:pageopacity="0.0"
     inkscape:pagecheckerboard="0"
     inkscape:deskcolor="#d1d1d1"
     showgrid="false"
     inkscape:zoom="1.357"
     inkscape:cx="499.63154"
     inkscape:cy="146.27856"
     inkscape:window-width="1920"
     inkscape:window-height="1050"
     inkscape:window-x="0"
     inkscape:window-y="0"
     inkscape:window-maximized="1"
     inkscape:current-layer="svg47" />
  <g
     transform="matrix(1,0,0,1,-0.6060606060606233,0.3250142632733457)"
     id="g45">
    <svg
       viewBox="0 0 396 116"
       data-background-color="#ffffff"
       preserveAspectRatio="xMidYMid meet"
       height="292"
       width="1000"
       version="1.1"
       id="svg43">
      <defs
         id="defs2" />
      <g
         id="tight-bounds"
         transform="matrix(1,0,0,1,0.2400000000000091,-0.1291152552729784)">
        <svg
           viewBox="0 0 395.52 116.25822332852265"
           height="116.25822332852265"
           width="395.52"
           version="1.1"
           id="svg38">
          <g
             id="g36">
            <svg
               viewBox="0 0 614.2119094330748 180.54001147327247"
               height="116.25822332852265"
               width="395.52"
               version="1.1"
               id="svg34">
              <g
                 transform="matrix(1,0,0,1,218.6919094330748,24.951622425032596)"
                 id="g23">
                <svg
                   viewBox="0 0 395.52 130.63676662320728"
                   height="130.63676662320728"
                   width="395.52"
                   version="1.1"
                   id="svg21">
                  <g
                     id="g19">
                    <svg
                       viewBox="0 0 395.52 130.63676662320728"
                       height="130.63676662320728"
                       width="395.52"
                       version="1.1"
                       id="svg17">
                      <g
                         id="g15">
                        <svg
                           viewBox="0 0 395.52 130.63676662320728"
                           height="130.63676662320728"
                           width="395.52"
                           version="1.1"
                           id="svg13">
                          <g
                             transform="matrix(1,0,0,1,0,0)"
                             id="g11">
                            <svg
                               width="395.52"
                               viewBox="4.950000762939453 -35 115.05000305175781 35"
                               height="130.63676662320728"
                               data-palette-color="#2257bf"
                               version="1.1"
                               id="svg9">
                              <svg
                                 version="1.1"
                                 id="svg4" />
                              <g
                                 class="undefined-text-0"
                                 data-fill-palette-color="primary"
                                 id="text-0">
                                <path
                                   d="M8.85 0v-1.5h15.5l-17.9-30.95v32.45h-1.5v-35h1.75l18.7 32.35v-32.35h1.5v35zM54.75-19.8v1.5h-14.85l15.3-15.2h-16.9v33.5h-1.5v-35h22.05l-15.3 15.2zM60.1-35h25v1.5h-11.75v33.5h-1.5v-33.5h-11.75zM92.3-35v35h-1.5v-35zM119-35l-8.8 16.55 9.8 18.45h-1.7l-8.95-16.85-8.95 16.85h-1.7l9.8-18.45-8.8-16.55h1.7l7.95 14.95 7.95-14.95z"
                                   data-fill-palette-color="primary"
                                   fill="#2257bf"
                                   opacity="1"
                                   id="path6"
                                   style="fill:#000080" />
                              </g>
                            </svg>
                          </g>
                        </svg>
                      </g>
                    </svg>
                  </g>
                </svg>
              </g>
              <g
                 id="g32">
                <svg
                   viewBox="0 0 190.2864571671035 180.54001147327247"
                   height="180.54001147327247"
                   width="190.2864571671035"
                   version="1.1"
                   id="svg30">
                  <g
                     id="g28">
                    <svg
                       version="1.1"
                       x="0"
                       y="0"
                       viewBox="4.440999984741211 8.02499771118164 91.11699676513672 86.44999694824219"
                       enable-background="new 0 0 100 100"
                       xml:space="preserve"
                       height="180.54001147327247"
                       width="190.2864571671035"
                       class="icon-icon-0"
                       data-fill-palette-color="accent"
                       id="icon-0"><path
                         d="M50.123 89.809c-16.455 0-33.156-9.578-37.822-20.63 6.14 9.578 22.35 17.929 37.822 17.929s30.945-8.104 36.103-17.684C82.296 80.477 67.069 89.809 50.123 89.809zM4.441 46.829c0 6.14 0.491 10.561 0.982 14.245 2.21 15.718 16.946 33.401 44.699 33.401 27.016 0 41.26-17.929 44.207-33.156 0.737-3.93 0.982-8.104 1.229-14.49C94.821 24.726 75.174 8.025 49.877 8.025 24.826 8.025 5.178 24.726 4.441 46.829zM40.054 17.357c18.91-1.474 42.488 14.981 45.436 36.349C87.699 31.111 65.104 11.955 40.054 17.357zM50.123 12.446c22.35 0 39.541 14.981 40.032 34.875 0.491 17.438-15.719 34.875-40.032 34.875-24.806 0-41.261-17.438-40.77-34.875C9.845 27.427 27.282 12.446 50.123 12.446z"
                         fill="#2257bf"
                         data-fill-palette-color="accent"
                         id="path25"
                         style="fill:#000080" /></svg>
                  </g>
                </svg>
              </g>
            </svg>
          </g>
        </svg>
        <rect
           width="395.52"
           height="116.25822332852265"
           fill="none"
           stroke="none"
           visibility="hidden"
           id="rect40" />
      </g>
    </svg>
  </g>
</svg>
