<?xml version="1.0" encoding="UTF-8" standalone="no"?>
<svg
   version="1.1"
   width="1000"
   height="351"
   viewBox="0 0 1000 351"
   id="svg402"
   sodipodi:docname="notixlogo-dark.svg"
   inkscape:version="1.2.1 (9c6d41e410, 2022-07-14, custom)"
   xmlns:inkscape="http://www.inkscape.org/namespaces/inkscape"
   xmlns:sodipodi="http://sodipodi.sourceforge.net/DTD/sodipodi-0.dtd"
   xmlns="http://www.w3.org/2000/svg"
   xmlns:svg="http://www.w3.org/2000/svg">
  <defs
     id="defs406" />
  <sodipodi:namedview
     id="namedview404"
     pagecolor="#ffffff"
     bordercolor="#000000"
     borderopacity="0.25"
     inkscape:showpageshadow="2"
     inkscape:pageopacity="0.0"
     inkscape:pagecheckerboard="0"
     inkscape:deskcolor="#d1d1d1"
     showgrid="false"
     inkscape:zoom="1.357"
     inkscape:cx="499.63154"
     inkscape:cy="176.49226"
     inkscape:window-width="1920"
     inkscape:window-height="1050"
     inkscape:window-x="0"
     inkscape:window-y="0"
     inkscape:window-maximized="1"
     inkscape:current-layer="svg402" />
  <path
     d="m 189.28616,90.75247 h 10.62066 v 157.0443 H 188.81413 L 95.87147,108.45359 h -0.84966 q 1.22728,23.74309 1.22728,37.57357 v 0 101.76961 H 85.72283 V 90.75247 h 10.99829 l 92.94266,139.24878 h 0.61364 q -0.99126,-20.6277 -0.99126,-36.72392 v 0 z m 116.87456,148.92539 q 28.22738,0 43.19072,-18.26755 14.96335,-18.22035 14.96335,-52.2537 0,-33.98614 -14.96335,-52.06488 -14.96334,-18.07874 -43.04911,-18.07874 -28.13297,0 -43.28513,18.17315 -15.15215,18.22035 -15.15215,51.97047 0,33.79733 15.05775,52.15929 15.01054,18.36196 43.23792,18.36196 z m -51.59285,-11.47032 v 0 q -18.64518,-21.71337 -18.64518,-59.23974 0,-37.52636 18.88119,-59.05092 18.83399,-21.52456 51.64006,-21.52456 32.85327,0 51.30963,21.57176 18.50357,21.61897 18.50357,59.14533 0,37.52637 -18.64518,59.19253 -18.69237,21.66617 -51.45124,21.66617 -32.75886,0 -51.59285,-21.76057 z M 497.71039,101.13713 h -51.07361 v 146.65964 h -11.0927 V 101.13713 H 384.61207 V 90.75247 h 113.09832 z m 34.22216,-10.38466 v 157.0443 H 520.98146 V 90.75247 Z m 136.511,0 -48.57186,74.95833 52.63132,82.08597 h -12.6504 l -46.30612,-73.25902 -47.25017,73.25902 h -12.17837 l 52.86733,-81.84996 -48.09983,-75.19434 h 12.41438 l 42.38827,67.31144 43.04912,-67.31144 z"
     opacity="1"
     fill="#adacac"
     class="undefined-text-0"
     data-fill-palette-color="primary"
     id="text-0"
     style="fill:#0000ff;stroke-width:4.7203" />
  <path
     d="m 904.7313,136.37531 c 27.8401,26.31593 37.6579,65.05641 -17.2517,99.2945 7.7269,-10.46099 12.0021,-20.79037 12.9404,-31.13885 2.0187,-22.32301 -11.9002,-40.4854 -27.2457,-56.78824 -22.4928,-23.8981 -24.1656,-46.95134 -5.2666,-72.54765 -3.8953,33.66495 17.3791,42.79921 36.8236,61.18024 z m -60.4394,123.3603 c 13.1272,-27.70846 15.4453,-43.09639 -17.4003,-74.16732 -8.9241,-8.44224 -15.8167,-17.04369 -20.612,-25.65575 -6.1157,13.66 -10.962,42.62726 6.8862,59.29947 12.0722,11.27613 28.6574,18.04139 31.1261,40.5236 z m 24.2442,-107.62848 c -18.0987,-19.23226 -31.2259,-46.19351 -5.7506,-80.69483 -68.9963,26.94215 -72.9701,70.31663 -31.521,109.52836 34.9238,33.03236 33.1131,51.27117 18.7844,81.52058 67.6632,-49.885 43.9603,-83.28884 18.4872,-110.35411 z"
     fill="#eaeaea"
     data-fill-palette-color="accent"
     id="path361"
     style="fill:#0000ff;stroke-width:2.12277" />
</svg>
