<?xml version="1.0" encoding="UTF-8" standalone="no"?>
<svg
   version="1.1"
   width="1000"
   height="267"
   viewBox="0 0 1000 267"
   id="svg686"
   sodipodi:docname="xafkulogo-dark.svg"
   inkscape:version="1.2.1 (9c6d41e410, 2022-07-14, custom)"
   xmlns:inkscape="http://www.inkscape.org/namespaces/inkscape"
   xmlns:sodipodi="http://sodipodi.sourceforge.net/DTD/sodipodi-0.dtd"
   xmlns="http://www.w3.org/2000/svg"
   xmlns:svg="http://www.w3.org/2000/svg">
  <defs
     id="defs690" />
  <sodipodi:namedview
     id="namedview688"
     pagecolor="#ffffff"
     bordercolor="#000000"
     borderopacity="0.25"
     inkscape:showpageshadow="2"
     inkscape:pageopacity="0.0"
     inkscape:pagecheckerboard="0"
     inkscape:deskcolor="#d1d1d1"
     showgrid="false"
     inkscape:zoom="1.357"
     inkscape:cx="499.63154"
     inkscape:cy="134.48784"
     inkscape:window-width="1920"
     inkscape:window-height="1050"
     inkscape:window-x="0"
     inkscape:window-y="0"
     inkscape:window-maximized="1"
     inkscape:current-layer="svg686" />
  <g
     transform="matrix(1,0,0,1,-0.6060603465705299,0.021077288074138778)"
     id="g684">
    <svg
       viewBox="0 0 396 106"
       data-background-color="#8abcd7"
       preserveAspectRatio="xMidYMid meet"
       height="267"
       width="1000"
       version="1.1"
       id="svg682">
      <defs
         id="defs643" />
      <g
         id="tight-bounds"
         transform="matrix(1,0,0,1,0.2400001027581311,-0.008367762306590976)">
        <svg
           viewBox="0 0 395.52 106.0167355246132"
           height="106.0167355246132"
           width="395.52"
           version="1.1"
           id="svg677">
          <g
             id="g675">
            <svg
               viewBox="0 0 495.2067338157071 132.73715950886768"
               height="106.0167355246132"
               width="395.52"
               version="1.1"
               id="svg673">
              <g
                 transform="matrix(1,0,0,1,0,18.34500540245567)"
                 id="g660">
                <svg
                   viewBox="0 0 395.52 96.04714870395634"
                   height="96.04714870395634"
                   width="395.52"
                   version="1.1"
                   id="svg658">
                  <g
                     id="g656">
                    <svg
                       viewBox="0 0 395.52 96.04714870395634"
                       height="96.04714870395634"
                       width="395.52"
                       version="1.1"
                       id="svg654">
                      <g
                         id="g652">
                        <svg
                           viewBox="0 0 395.52 96.04714870395634"
                           height="96.04714870395634"
                           width="395.52"
                           version="1.1"
                           id="svg650">
                          <g
                             transform="matrix(1,0,0,1,0,0)"
                             id="g648">
                            <svg
                               width="395.52"
                               viewBox="1.9000000953674316 -35 146.5900115966797 35.599998474121094"
                               height="96.04714870395634"
                               data-palette-color="#ffffff"
                               version="1.1"
                               id="svg646">
                              <path
                                 d="M6.65 0L1.9 0 12.6-17.65 1.9-35 6.65-35 15.25-21 23.45-35 28.15-35 17.45-17.45 28.2 0 23.45 0 14.8-14.05 6.65 0ZM36 0L31.6 0 44.5-35 48.95-35 61.8 0 57.35 0 54.15-9 39.25-9 36 0ZM46.7-29.7L40.5-12.4 52.9-12.4 46.7-29.7ZM71.2 0L67 0 67-35 88.3-35 88.3-31.55 71.2-31.55 71.2-19.25 85.75-19.25 85.75-15.85 71.2-15.85 71.2 0ZM97.89 0L93.69 0 93.69-35 97.89-35 97.89-19.15 112.49-35 117.79-35 104.79-21.05 117.99 0 112.89 0 101.79-17.8 97.89-13.65 97.89 0ZM135.44 0.6L135.44 0.6Q131.84 0.6 128.91-0.83 125.99-2.25 124.24-5.25 122.49-8.25 122.49-12.9L122.49-12.9 122.49-35 126.69-35 126.69-12.85Q126.69-7.75 129.14-5.45 131.59-3.15 135.54-3.15L135.54-3.15Q139.49-3.15 141.89-5.45 144.29-7.75 144.29-12.85L144.29-12.85 144.29-35 148.49-35 148.49-12.9Q148.49-8.25 146.74-5.25 144.99-2.25 142.04-0.83 139.09 0.6 135.44 0.6Z"
                                 opacity="1"
                                 transform="matrix(1,0,0,1,0,0)"
                                 fill="#ffffff"
                                 class="undefined-text-0"
                                 data-fill-palette-color="primary"
                                 id="text-0"
                                 style="fill:#2ca05a" />
                            </svg>
                          </g>
                        </svg>
                      </g>
                    </svg>
                  </g>
                </svg>
              </g>
              <g
                 transform="matrix(1,0,0,1,418.19442667743516,0)"
                 id="g671">
                <svg
                   viewBox="0 0 77.01230713827192 132.73715950886768"
                   height="132.73715950886768"
                   width="77.01230713827192"
                   version="1.1"
                   id="svg669">
                  <g
                     id="g667">
                    <svg
                       version="1.1"
                       x="0"
                       y="0"
                       viewBox="21.679107666015625 1 56.8582763671875 98"
                       enable-background="new 0 0 100 100"
                       xml:space="preserve"
                       height="132.73715950886768"
                       width="77.01230713827192"
                       class="icon-icon-0"
                       data-fill-palette-color="accent"
                       id="icon-0"><g
                         fill="#ffffff"
                         data-fill-palette-color="accent"
                         id="g664"><path
                           fill-rule="evenodd"
                           clip-rule="evenodd"
                           d="M30.545 28.822c-1.165 7.217 0.33 14.85 6.5 19.041C30.758 19.81 45.756 8.664 59.646 1c-16.18 23.046 16.896 23.644 18.777 50.13C80.028 73.71 64.507 91.317 46.639 99c0.206-22.825-22.55-25.933-24.838-44.603C20.905 47.094 25.062 33.766 30.545 28.822z"
                           fill="#ffffff"
                           data-fill-palette-color="accent"
                           id="path662"
                           style="fill:#2ca05a" /></g></svg>
                  </g>
                </svg>
              </g>
            </svg>
          </g>
        </svg>
        <rect
           width="395.52"
           height="106.0167355246132"
           fill="none"
           stroke="none"
           visibility="hidden"
           id="rect679" />
      </g>
    </svg>
  </g>
</svg>
